{
  "asset": {
    "version": "2.0",
    "generator": "ModelConverterX"
  },
  "extensionsUsed": [
    "ASOBO_material_day_night_switch"
  ],
  "scene": 0,
  "scenes": [
    {
      "nodes": [
        0
      ]
    }
  ],
  "nodes": [
    {
      "name": "node0",
      "children": [
        1,
        2,
        3,
        4,
        5
      ]
    },
    {
      "name": "node1",
      "mesh": 0
    },
    {
      "name": "node2",
      "mesh": 1
    },
    {
      "name": "node3",
      "mesh": 2
    },
    {
      "name": "node4",
      "mesh": 3
    },
    {
      "name": "node5",
      "mesh": 4
    }
  ],
  "meshes": [
    {
      "primitives": [
        {
          "attributes": {
            "POSITION": 0,
            "NORMAL": 1,
            "TEXCOORD_0": 2,
            "COLOR_0": 3
          },
          "indices": 4,
          "mode": 4,
          "material": 0
        }
      ],
      "name": "part000"
    },
    {
      "primitives": [
        {
          "attributes": {
            "POSITION": 5,
            "NORMAL": 6,
            "TEXCOORD_0": 7,
            "COLOR_0": 8
          },
          "indices": 9,
          "mode": 4,
          "material": 1
        }
      ],
      "name": "part001"
    },
    {
      "primitives": [
        {
          "attributes": {
            "POSITION": 10,
            "NORMAL": 11,
            "TEXCOORD_0": 12,
            "COLOR_0": 13
          },
          "indices": 14,
          "mode": 4,
          "material": 4
        }
      ],
      "name": "part002"
    },
    {
      "primitives": [
        {
          "attributes": {
            "POSITION": 15,
            "NORMAL": 16,
            "TEXCOORD_0": 17,
            "COLOR_0": 18
          },
          "indices": 19,
          "mode": 4,
          "material": 3
        }
      ],
      "name": "part003"
    },
    {
      "primitives": [
        {
          "attributes": {
            "POSITION": 20,
            "NORMAL": 21,
            "TEXCOORD_0": 22,
            "COLOR_0": 23
          },
          "indices": 24,
          "mode": 4,
          "material": 2
        }
      ],
      "name": "part004"
    }
  ],
  "accessors": [
    {
      "bufferView": 1,
      "byteOffset": 0,
      "componentType": 5126,
      "count": 600,
      "type": "VEC3",
      "min": [
        -0.29293999075889587,
        0.0096399998292326927,
        -0.19532999396324158
      ],
      "max": [
        0.2924099862575531,
        0.21978999674320221,
        0.31711000204086304
      ]
    },
    {
      "bufferView": 2,
      "byteOffset": 0,
      "componentType": 5126,
      "count": 600,
      "type": "VEC3"
    },
    {
      "bufferView": 3,
      "byteOffset": 0,
      "componentType": 5126,
      "count": 600,
      "type": "VEC2"
    },
    {
      "bufferView": 4,
      "byteOffset": 0,
      "componentType": 5126,
      "count": 600,
      "type": "VEC4"
    },
    {
      "bufferView": 0,
      "byteOffset": 0,
      "componentType": 5125,
      "count": 3078,
      "type": "SCALAR"
    },
    {
      "bufferView": 1,
      "byteOffset": 7200,
      "componentType": 5126,
      "count": 15,
      "type": "VEC3",
      "min": [
        -0.35519999265670776,
        -0.011900000274181366,
        -0.20508000254631042
      ],
      "max": [
        0.35519999265670776,
        0.053339999169111252,
        0.41014999151229858
      ]
    },
    {
      "bufferView": 2,
      "byteOffset": 7200,
      "componentType": 5126,
      "count": 15,
      "type": "VEC3"
    },
    {
      "bufferView": 3,
      "byteOffset": 4800,
      "componentType": 5126,
      "count": 15,
      "type": "VEC2"
    },
    {
      "bufferView": 4,
      "byteOffset": 9600,
      "componentType": 5126,
      "count": 15,
      "type": "VEC4"
    },
    {
      "bufferView": 0,
      "byteOffset": 12312,
      "componentType": 5125,
      "count": 21,
      "type": "SCALAR"
    },
    {
      "bufferView": 1,
      "byteOffset": 7380,
      "componentType": 5126,
      "count": 8,
      "type": "VEC3",
      "min": [
        -0.24400000274181366,
        0.0514100007712841,
        -0.14100000262260437
      ],
      "max": [
        0.24400000274181366,
        2.9808700084686279,
        0.28200000524520874
      ]
    },
    {
      "bufferView": 2,
      "byteOffset": 7380,
      "componentType": 5126,
      "count": 8,
      "type": "VEC3"
    },
    {
      "bufferView": 3,
      "byteOffset": 4920,
      "componentType": 5126,
      "count": 8,
      "type": "VEC2"
    },
    {
      "bufferView": 4,
      "byteOffset": 9840,
      "componentType": 5126,
      "count": 8,
      "type": "VEC4"
    },
    {
      "bufferView": 0,
      "byteOffset": 12396,
      "componentType": 5125,
      "count": 12,
      "type": "SCALAR"
    },
    {
      "bufferView": 1,
      "byteOffset": 7476,
      "componentType": 5126,
      "count": 4,
      "type": "VEC3",
      "min": [
        -0.24400000274181366,
        0.0514100007712841,
        -0.14100000262260437
      ],
      "max": [
        -3.45339005277498E-17,
        2.9808700084686279,
        0.28200000524520874
      ]
    },
    {
      "bufferView": 2,
      "byteOffset": 7476,
      "componentType": 5126,
      "count": 4,
      "type": "VEC3"
    },
    {
      "bufferView": 3,
      "byteOffset": 4984,
      "componentType": 5126,
      "count": 4,
      "type": "VEC2"
    },
    {
      "bufferView": 4,
      "byteOffset": 9968,
      "componentType": 5126,
      "count": 4,
      "type": "VEC4"
    },
    {
      "bufferView": 0,
      "byteOffset": 12444,
      "componentType": 5125,
      "count": 6,
      "type": "SCALAR"
    },
    {
      "bufferView": 1,
      "byteOffset": 7524,
      "componentType": 5126,
      "count": 3,
      "type": "VEC3",
      "min": [
        -0.24400000274181366,
        2.9808700084686279,
        -0.14100000262260437
      ],
      "max": [
        0.24400000274181366,
        2.9808700084686279,
        0.28200000524520874
      ]
    },
    {
      "bufferView": 2,
      "byteOffset": 7524,
      "componentType": 5126,
      "count": 3,
      "type": "VEC3"
    },
    {
      "bufferView": 3,
      "byteOffset": 5016,
      "componentType": 5126,
      "count": 3,
      "type": "VEC2"
    },
    {
      "bufferView": 4,
      "byteOffset": 10032,
      "componentType": 5126,
      "count": 3,
      "type": "VEC4"
    },
    {
      "bufferView": 0,
      "byteOffset": 12468,
      "componentType": 5125,
      "count": 3,
      "type": "SCALAR"
    }
  ],
  "materials": [
    {
      "name": "Alumin",
      "pbrMetallicRoughness": {
        "baseColorFactor": [
          1.0,
          1.0,
          1.0,
          1.0
        ],
        "roughnessFactor": 0.21710526943206787,
        "metallicFactor": 1.0,
        "baseColorTexture": {
          "index": 0
        }
      },
      "emissiveFactor": [
        0.0,
        0.0,
        0.0
      ],
      "doubleSided": true,
      "extensions": {
        "ASOBO_material_day_night_switch": {
          "enabled": true
        }
      }
    },
    {
      "name": "Concrete",
      "pbrMetallicRoughness": {
        "baseColorFactor": [
          1.0,
          1.0,
          1.0,
          1.0
        ],
        "roughnessFactor": 0.5,
        "metallicFactor": 0.0,
        "baseColorTexture": {
          "index": 1
        }
      },
      "emissiveFactor": [
        0.0,
        0.0,
        0.0
      ],
      "doubleSided": true,
      "extensions": {
        "ASOBO_material_day_night_switch": {
          "enabled": true
        }
      }
    },
    {
      "name": "Top",
      "pbrMetallicRoughness": {
        "baseColorFactor": [
          0.10114183276891708,
          0.10114183276891708,
          0.10114183276891708,
          1.0
        ],
        "roughnessFactor": 1.0,
        "metallicFactor": 0.0
      },
      "emissiveFactor": [
        0.0,
        0.0,
        0.0
      ],
      "doubleSided": true,
      "extensions": {
        "ASOBO_material_day_night_switch": {
          "enabled": true
        }
      }
    },
    {
      "name": "VertSign3",
      "pbrMetallicRoughness": {
        "baseColorFactor": [
          1.0,
          1.0,
          1.0,
          1.0
        ],
        "roughnessFactor": 1.0,
        "metallicFactor": 0.0,
        "baseColorTexture": {
          "index": 2
        }
      },
      "emissiveFactor": [
        0.0,
        0.0,
        0.0
      ],
      "doubleSided": true,
      "extensions": {
        "ASOBO_material_day_night_switch": {
          "enabled": true
        }
      }
    },
    {
      "name": "VertSigns02",
      "pbrMetallicRoughness": {
        "baseColorFactor": [
          1.0,
          1.0,
          1.0,
          1.0
        ],
        "roughnessFactor": 1.0,
        "metallicFactor": 0.0,
        "baseColorTexture": {
          "index": 3
        }
      },
      "emissiveFactor": [
        0.0,
        0.0,
        0.0
      ],
      "doubleSided": true,
      "extensions": {
        "ASOBO_material_day_night_switch": {
          "enabled": true
        }
      }
    }
  ],
  "textures": [
    {
      "source": 0,
      "name": "aluminbrshd_diffuseoriginal.png"
    },
    {
      "source": 1,
      "name": "concslab.png"
    },
    {
      "source": 2,
      "name": "t2sidebldsides.png"
    },
    {
      "source": 3,
      "name": "lanc_interior2.png"
    }
  ],
  "images": [
    {
      "uri": "aluminbrshd_diffuseoriginal.png.dds"
    },
    {
      "uri": "concslab.png.dds"
    },
    {
      "uri": "t2sidebldsides.png.dds"
    },
    {
      "uri": "lanc_interior2.png.dds"
    }
  ],
  "bufferViews": [
    {
      "buffer": 0,
      "byteOffset": 0,
      "byteLength": 12480
    },
    {
      "buffer": 0,
      "byteOffset": 12480,
      "byteLength": 7560,
      "byteStride": 12
    },
    {
      "buffer": 0,
      "byteOffset": 20040,
      "byteLength": 7560,
      "byteStride": 12
    },
    {
      "buffer": 0,
      "byteOffset": 27600,
      "byteLength": 5040,
      "byteStride": 8
    },
    {
      "buffer": 0,
      "byteOffset": 32640,
      "byteLength": 10080,
      "byteStride": 16
    }
  ],
  "buffers": [
    {
      "byteLength": 42720,
      "uri": "pannel_LOD0.bin"
    }
  ]
}