{"accessors":[{"bufferView":0,"componentType":5126,"count":600,"min":[-0.2929399907588959,0.009639999829232693,-0.19532999396324159],"max":[0.2924099862575531,0.2197899967432022,0.31711000204086306],"type":"VEC3","name":"part000_vertices#0_POSITION"},{"bufferView":0,"byteOffset":12,"componentType":5120,"count":600,"type":"VEC4","name":"part000_vertices#0_TANGENT"},{"bufferView":0,"byteOffset":16,"componentType":5120,"count":600,"type":"VEC4","name":"part000_vertices#0_NORMAL"},{"bufferView":0,"byteOffset":20,"componentType":5122,"count":600,"type":"VEC2","name":"part000_vertices#0_TEXCOORD_0"},{"bufferView":0,"byteOffset":24,"componentType":5122,"count":600,"type":"VEC2","name":"part000_vertices#0_TEXCOORD_1"},{"bufferView":0,"byteOffset":28,"componentType":5123,"count":600,"type":"VEC4","name":"part000_vertices#0_COLOR_0"},{"bufferView":1,"componentType":5123,"count":3078,"type":"SCALAR","name":"part000_indices#0"},{"bufferView":0,"byteOffset":21600,"componentType":5126,"count":15,"min":[-0.35519999265670779,-0.011900000274181366,-0.20508000254631043],"max":[0.35519999265670779,0.05333999916911125,0.4101499915122986],"type":"VEC3","name":"part001_vertices#0_POSITION"},{"bufferView":0,"byteOffset":21612,"componentType":5120,"count":15,"type":"VEC4","name":"part001_vertices#0_TANGENT"},{"bufferView":0,"byteOffset":21616,"componentType":5120,"count":15,"type":"VEC4","name":"part001_vertices#0_NORMAL"},{"bufferView":0,"byteOffset":21620,"componentType":5122,"count":15,"type":"VEC2","name":"part001_vertices#0_TEXCOORD_0"},{"bufferView":0,"byteOffset":21624,"componentType":5122,"count":15,"type":"VEC2","name":"part001_vertices#0_TEXCOORD_1"},{"bufferView":0,"byteOffset":21628,"componentType":5123,"count":15,"type":"VEC4","name":"part001_vertices#0_COLOR_0"},{"bufferView":1,"byteOffset":6156,"componentType":5123,"count":21,"type":"SCALAR","name":"part001_indices#0"},{"bufferView":0,"byteOffset":22140,"componentType":5126,"count":8,"min":[-0.24400000274181367,0.0514100007712841,-0.14100000262260438],"max":[0.24400000274181367,2.980870008468628,0.28200000524520876],"type":"VEC3","name":"part002_vertices#0_POSITION"},{"bufferView":0,"byteOffset":22152,"componentType":5120,"count":8,"type":"VEC4","name":"part002_vertices#0_TANGENT"},{"bufferView":0,"byteOffset":22156,"componentType":5120,"count":8,"type":"VEC4","name":"part002_vertices#0_NORMAL"},{"bufferView":0,"byteOffset":22160,"componentType":5122,"count":8,"type":"VEC2","name":"part002_vertices#0_TEXCOORD_0"},{"bufferView":0,"byteOffset":22164,"componentType":5122,"count":8,"type":"VEC2","name":"part002_vertices#0_TEXCOORD_1"},{"bufferView":0,"byteOffset":22168,"componentType":5123,"count":8,"type":"VEC4","name":"part002_vertices#0_COLOR_0"},{"bufferView":1,"byteOffset":6198,"componentType":5123,"count":12,"type":"SCALAR","name":"part002_indices#0"},{"bufferView":0,"byteOffset":22428,"componentType":5126,"count":4,"min":[-0.24400000274181367,0.0514100007712841,-0.14100000262260438],"max":[-3.45339005277498e-17,2.980870008468628,0.28200000524520876],"type":"VEC3","name":"part003_vertices#0_POSITION"},{"bufferView":0,"byteOffset":22440,"componentType":5120,"count":4,"type":"VEC4","name":"part003_vertices#0_TANGENT"},{"bufferView":0,"byteOffset":22444,"componentType":5120,"count":4,"type":"VEC4","name":"part003_vertices#0_NORMAL"},{"bufferView":0,"byteOffset":22448,"componentType":5122,"count":4,"type":"VEC2","name":"part003_vertices#0_TEXCOORD_0"},{"bufferView":0,"byteOffset":22452,"componentType":5122,"count":4,"type":"VEC2","name":"part003_vertices#0_TEXCOORD_1"},{"bufferView":0,"byteOffset":22456,"componentType":5123,"count":4,"type":"VEC4","name":"part003_vertices#0_COLOR_0"},{"bufferView":1,"byteOffset":6222,"componentType":5123,"count":6,"type":"SCALAR","name":"part003_indices#0"},{"bufferView":0,"byteOffset":22572,"componentType":5126,"count":3,"min":[-0.24400000274181367,2.980870008468628,-0.14100000262260438],"max":[0.24400000274181367,2.980870008468628,0.28200000524520876],"type":"VEC3","name":"part004_vertices#0_POSITION"},{"bufferView":0,"byteOffset":22584,"componentType":5120,"count":3,"type":"VEC4","name":"part004_vertices#0_TANGENT"},{"bufferView":0,"byteOffset":22588,"componentType":5120,"count":3,"type":"VEC4","name":"part004_vertices#0_NORMAL"},{"bufferView":0,"byteOffset":22592,"componentType":5122,"count":3,"type":"VEC2","name":"part004_vertices#0_TEXCOORD_0"},{"bufferView":0,"byteOffset":22596,"componentType":5122,"count":3,"type":"VEC2","name":"part004_vertices#0_TEXCOORD_1"},{"bufferView":0,"byteOffset":22600,"componentType":5123,"count":3,"type":"VEC4","name":"part004_vertices#0_COLOR_0"},{"bufferView":1,"byteOffset":6234,"componentType":5123,"count":3,"type":"SCALAR","name":"part004_indices#0"}],"asset":{"generator":"ModelConverterX","version":"2.0","extensions":{"ASOBO_asset_optimized":{"BoundingBoxMax":[0.35519999265670779,2.980870008468628,0.4101499915122986],"BoundingBoxMin":[-0.35519999265670779,-0.011900000274181366,-0.20508000254631043],"MajorVersion":4,"MinorVersion":3,"UseCheckerboardMaterialForMissingTextures":true}}},"bufferViews":[{"buffer":0,"byteLength":22680,"byteStride":36,"target":34962,"name":"BufferViewVertexND"},{"buffer":0,"byteLength":6240,"byteOffset":22680,"target":34963,"name":"BufferViewIndex"}],"extensionsRequired":["MSFT_texture_dds"],"materials":[{"name":"Alumin","doubleSided":true,"pbrMetallicRoughness":{"roughnessFactor":0.21710526943206788,"baseColorTexture":{"index":0}},"extensions":{"ASOBO_material_day_night_switch":{}}},{"name":"Concrete","doubleSided":true,"pbrMetallicRoughness":{"metallicFactor":0.0,"roughnessFactor":0.5,"baseColorTexture":{"index":1}},"extensions":{"ASOBO_material_day_night_switch":{}}},{"name":"Top","doubleSided":true,"pbrMetallicRoughness":{"baseColorFactor":[0.10114183276891709,0.10114183276891709,0.10114183276891709,1.0],"metallicFactor":0.0},"extensions":{"ASOBO_material_day_night_switch":{}}},{"name":"VertSign3","doubleSided":true,"pbrMetallicRoughness":{"metallicFactor":0.0,"baseColorTexture":{"index":2}},"extensions":{"ASOBO_material_day_night_switch":{}}},{"name":"VertSigns02","doubleSided":true,"pbrMetallicRoughness":{"metallicFactor":0.0,"baseColorTexture":{"index":3}},"extensions":{"ASOBO_material_day_night_switch":{}}}],"meshes":[{"primitives":[{"attributes":{"COLOR_0":5,"NORMAL":2,"POSITION":0,"TANGENT":1,"TEXCOORD_0":3,"TEXCOORD_1":4},"indices":6,"material":0,"mode":4,"extras":{"ASOBO_primitive":{"PrimitiveCount":1026,"VertexType":"VTX","VertexVersion":2}}}],"name":"part000"},{"primitives":[{"attributes":{"COLOR_0":12,"NORMAL":9,"POSITION":7,"TANGENT":8,"TEXCOORD_0":10,"TEXCOORD_1":11},"indices":13,"material":1,"mode":4,"extras":{"ASOBO_primitive":{"PrimitiveCount":7,"VertexType":"VTX","VertexVersion":2}}}],"name":"part001"},{"primitives":[{"attributes":{"COLOR_0":19,"NORMAL":16,"POSITION":14,"TANGENT":15,"TEXCOORD_0":17,"TEXCOORD_1":18},"indices":20,"material":4,"mode":4,"extras":{"ASOBO_primitive":{"PrimitiveCount":4,"VertexType":"VTX","VertexVersion":2}}}],"name":"part002"},{"primitives":[{"attributes":{"COLOR_0":26,"NORMAL":23,"POSITION":21,"TANGENT":22,"TEXCOORD_0":24,"TEXCOORD_1":25},"indices":27,"material":3,"mode":4,"extras":{"ASOBO_primitive":{"PrimitiveCount":2,"VertexType":"VTX","VertexVersion":2}}}],"name":"part003"},{"primitives":[{"attributes":{"COLOR_0":33,"NORMAL":30,"POSITION":28,"TANGENT":29,"TEXCOORD_0":31,"TEXCOORD_1":32},"indices":34,"material":2,"mode":4,"extras":{"ASOBO_primitive":{"PrimitiveCount":1,"VertexType":"VTX","VertexVersion":2}}}],"name":"part004"}],"nodes":[{"name":"node0","children":[1,2,3,4,5]},{"mesh":0,"name":"node1"},{"mesh":1,"name":"node2"},{"mesh":2,"name":"node3"},{"mesh":3,"name":"node4"},{"mesh":4,"name":"node5"}],"scene":0,"scenes":[{"nodes":[0]}],"textures":[{"extensions":{"MSFT_texture_dds":{"source":0}}},{"extensions":{"MSFT_texture_dds":{"source":1}}},{"extensions":{"MSFT_texture_dds":{"source":2}}},{"extensions":{"MSFT_texture_dds":{"source":3}}}],"extensionsUsed":["ASOBO_material_day_night_switch","MSFT_texture_dds","ASOBO_asset_optimized"],"buffers":[{"byteLength":28920,"uri":"pannel_LOD0.bin"}],"images":[{"uri":"ALUMINBRSHD_DIFFUSEORIGINAL.PNG.DDS.DDS","extras":"ASOBO_image_converted_meta"},{"uri":"CONCSLAB.PNG.DDS.DDS","extras":"ASOBO_image_converted_meta"},{"uri":"T2SIDEBLDSIDES.PNG.DDS.DDS","extras":"ASOBO_image_converted_meta"},{"uri":"LANC_INTERIOR2.PNG.DDS.DDS","extras":"ASOBO_image_converted_meta"}]}
