{"accessors":[{"bufferView":0,"componentType":5126,"count":3052,"min":[-5.814999580383301,-0.10000000149011612,-0.6910000443458557],"max":[5.785999774932861,0.10000000149011612,0.009000000543892384],"type":"VEC3","name":"Text_vertices#0_POSITION"},{"bufferView":0,"byteOffset":12,"componentType":5120,"count":3052,"type":"VEC4","name":"Text_vertices#0_TANGENT"},{"bufferView":0,"byteOffset":16,"componentType":5120,"count":3052,"type":"VEC4","name":"Text_vertices#0_NORMAL"},{"bufferView":0,"byteOffset":20,"componentType":5122,"count":3052,"type":"VEC2","name":"Text_vertices#0_TEXCOORD_0"},{"bufferView":0,"byteOffset":24,"componentType":5122,"count":3052,"type":"VEC2","name":"Text_vertices#0_TEXCOORD_1"},{"bufferView":0,"byteOffset":28,"componentType":5123,"count":3052,"type":"VEC4","name":"Text_vertices#0_COLOR_0"},{"bufferView":1,"componentType":5123,"count":7176,"type":"SCALAR","name":"Text_indices#0"}],"asset":{"generator":"Extended Khronos glTF Blender I/O v1.0.0","version":"2.0","extensions":{"ASOBO_asset_optimized":{"BoundingBoxMax":[5.785999774932861,0.10000000149011612,0.009000000543892384],"BoundingBoxMin":[-5.814999580383301,-0.10000000149011612,-0.6910000443458557],"MajorVersion":4,"MinorVersion":3,"UseCheckerboardMaterialForMissingTextures":true},"ASOBO_normal_map_convention":{"tangent_space_convention":"DirectX"}}},"bufferViews":[{"buffer":0,"byteLength":109872,"byteStride":36,"target":34962,"name":"BufferViewVertexND"},{"buffer":0,"byteLength":14352,"byteOffset":109872,"target":34963,"name":"BufferViewIndex"}],"extensionsRequired":["MSFT_texture_dds"],"materials":[{"name":"Material.004","normalTexture":{"index":0},"occlusionTexture":{"index":1},"pbrMetallicRoughness":{"baseColorTexture":{"index":2},"metallicRoughnessTexture":{"index":1}}}],"meshes":[{"primitives":[{"attributes":{"COLOR_0":5,"NORMAL":2,"POSITION":0,"TANGENT":1,"TEXCOORD_0":3,"TEXCOORD_1":4},"indices":6,"material":0,"mode":4,"extras":{"ASOBO_primitive":{"PrimitiveCount":2392,"VertexType":"VTX","VertexVersion":2}}}],"name":"Text"}],"nodes":[{"translation":[0.0,-0.23853403329849244,0.1941555291414261],"mesh":0,"name":"Text"}],"scene":0,"scenes":[{"nodes":[0],"name":"Scene","extras":{"glTF2ExportSettings":{"export_extras":1,"export_generate_guid":1,"export_lods":0,"export_texture_dir":"../texture","export_xml":1,"export_xml_file":"statutazgharie","use_selection":1}}}],"textures":[{"extensions":{"MSFT_texture_dds":{"source":0}}},{"extensions":{"MSFT_texture_dds":{"source":1}}},{"extensions":{"MSFT_texture_dds":{"source":2}}}],"extensionsUsed":["ASOBO_normal_map_convention","MSFT_texture_dds","ASOBO_asset_optimized"],"buffers":[{"byteLength":124224,"uri":"statutazgharie.bin"}],"images":[{"uri":"METAL025_2K_NORMALDX.PNG.DDS","name":"Metal025_2K_NormalDX","extras":"ASOBO_image_converted_meta"},{"uri":"METAL025_2K_ROUGHNESS.PNG.DDS","name":"Metal025_2K_Roughness","extras":"ASOBO_image_converted_meta"},{"uri":"METAL025_2K_DISPLACEMENT.PNG.DDS","name":"Metal025_2K_Displacement","extras":"ASOBO_image_converted_meta"}]}
