{"accessors":[{"bufferView":0,"componentType":5126,"count":10424,"min":[-10437.1083984375,-0.0001220703125,39910.00390625],"max":[-7362.2236328125,995.9404907226563,43185.9296875],"type":"VEC3","name":"C0808118_vertices#0_POSITION"},{"bufferView":0,"byteOffset":12,"componentType":5120,"count":10424,"type":"VEC4","name":"C0808118_vertices#0_TANGENT"},{"bufferView":0,"byteOffset":16,"componentType":5120,"count":10424,"type":"VEC4","name":"C0808118_vertices#0_NORMAL"},{"bufferView":0,"byteOffset":20,"componentType":5122,"count":10424,"type":"VEC2","name":"C0808118_vertices#0_TEXCOORD_0"},{"bufferView":0,"byteOffset":24,"componentType":5122,"count":10424,"type":"VEC2","name":"C0808118_vertices#0_TEXCOORD_1"},{"bufferView":0,"byteOffset":28,"componentType":5123,"count":10424,"type":"VEC4","name":"C0808118_vertices#0_COLOR_0"},{"bufferView":1,"componentType":5123,"count":23760,"type":"SCALAR","name":"C0808118_indices#0"},{"bufferView":0,"byteOffset":375264,"componentType":5126,"count":159941,"min":[-30.51471710205078,-32.17517852783203,-7.379819869995117],"max":[30.51472282409668,32.329219818115237,8.420319557189942],"type":"VEC3","name":"A-340_vertices#0_POSITION"},{"bufferView":0,"byteOffset":375276,"componentType":5120,"count":159941,"type":"VEC4","name":"A-340_vertices#0_TANGENT"},{"bufferView":0,"byteOffset":375280,"componentType":5120,"count":159941,"type":"VEC4","name":"A-340_vertices#0_NORMAL"},{"bufferView":0,"byteOffset":375284,"componentType":5122,"count":159941,"type":"VEC2","name":"A-340_vertices#0_TEXCOORD_0"},{"bufferView":0,"byteOffset":375288,"componentType":5122,"count":159941,"type":"VEC2","name":"A-340_vertices#0_TEXCOORD_1"},{"bufferView":0,"byteOffset":375292,"componentType":5123,"count":159941,"type":"VEC4","name":"A-340_vertices#0_COLOR_0"},{"bufferView":1,"byteOffset":47520,"componentType":5123,"count":784002,"type":"SCALAR","name":"A-340_indices#20"}],"asset":{"generator":"Extended Khronos glTF Blender I/O v1.0.0","version":"2.0","extensions":{"ASOBO_asset_optimized":{"BoundingBoxMax":[30.51472282409668,995.9404907226563,43185.9296875],"BoundingBoxMin":[-10437.1083984375,-32.17517852783203,-7.379819869995117],"MajorVersion":4,"MinorVersion":3,"UseCheckerboardMaterialForMissingTextures":true},"ASOBO_normal_map_convention":{"tangent_space_convention":"DirectX"}}},"bufferViews":[{"buffer":0,"byteLength":6133140,"byteStride":36,"target":34962,"name":"BufferViewVertexND"},{"buffer":0,"byteLength":1615524,"byteOffset":6133140,"target":34963,"name":"BufferViewIndex"}],"extensionsRequired":["MSFT_texture_dds"],"materials":[{"name":"mj-A380-hp-ting","doubleSided":true,"pbrMetallicRoughness":{"baseColorFactor":[0.800000011920929,0.800000011920929,0.800000011920929,1.0],"metallicFactor":0.0,"roughnessFactor":0.5}},{"name":"a340_engineSG","alphaMode":"BLEND","pbrMetallicRoughness":{"metallicFactor":0.0,"roughnessFactor":0.5,"baseColorTexture":{"index":0}}},{"name":"a340_engine_blackSG","alphaMode":"BLEND","pbrMetallicRoughness":{"metallicFactor":0.0,"roughnessFactor":0.5,"baseColorTexture":{"index":1}}},{"name":"a340_engine_metalSG","alphaMode":"BLEND","pbrMetallicRoughness":{"metallicFactor":0.0,"roughnessFactor":0.5,"baseColorTexture":{"index":2}}},{"name":"a340_engine_supportSG","alphaMode":"BLEND","pbrMetallicRoughness":{"metallicFactor":0.0,"roughnessFactor":0.5,"baseColorTexture":{"index":3}}},{"name":"a340_engine_trimSG","alphaMode":"BLEND","pbrMetallicRoughness":{"metallicFactor":0.0,"roughnessFactor":0.5,"baseColorTexture":{"index":4}}},{"name":"a340_mainbodySG","alphaMode":"BLEND","pbrMetallicRoughness":{"metallicFactor":0.0,"roughnessFactor":0.5,"baseColorTexture":{"index":5}}},{"name":"a340_light_blueSG","alphaMode":"BLEND","pbrMetallicRoughness":{"baseColorFactor":[0.0031849141232669355,0.0,1.0,1.0],"metallicFactor":0.0,"roughnessFactor":0.5}},{"name":"a340_inside_redSG","alphaMode":"BLEND","pbrMetallicRoughness":{"baseColorFactor":[1.0,0.0,0.0007541556842625141,1.0],"metallicFactor":0.0,"roughnessFactor":0.5}},{"name":"a340_engine_rotorSG","alphaMode":"BLEND","pbrMetallicRoughness":{"metallicFactor":0.0,"roughnessFactor":0.5,"baseColorTexture":{"index":6}}},{"name":"a340_gearSG","alphaMode":"BLEND","pbrMetallicRoughness":{"metallicFactor":0.0,"roughnessFactor":0.5,"baseColorTexture":{"index":7}}},{"name":"a340_gear_chromeSG","alphaMode":"BLEND","pbrMetallicRoughness":{"baseColorFactor":[0.14240087568759919,0.12832872569561006,0.1361250281333923,1.0],"metallicFactor":0.0,"roughnessFactor":0.5}},{"name":"a340_gear_tireSG","alphaMode":"BLEND","pbrMetallicRoughness":{"baseColorFactor":[0.0025794764515012504,0.0025794764515012504,0.0025794764515012504,1.0],"metallicFactor":0.0,"roughnessFactor":0.5}},{"name":"a340_insideSG","alphaMode":"BLEND","pbrMetallicRoughness":{"metallicFactor":0.0,"roughnessFactor":0.5}},{"name":"a340_wing_lightSG","alphaMode":"BLEND","pbrMetallicRoughness":{"metallicFactor":0.0,"roughnessFactor":0.5}},{"name":"a340_rubberSG","alphaMode":"BLEND","pbrMetallicRoughness":{"baseColorFactor":[0.800000011920929,0.800000011920929,0.800000011920929,1.0],"metallicFactor":0.0,"roughnessFactor":0.5}},{"name":"a340_glassSG","alphaMode":"BLEND","pbrMetallicRoughness":{"baseColorFactor":[0.5898994207382202,0.71397465467453,1.0,1.0],"metallicFactor":0.0,"roughnessFactor":0.5},"extensions":{"ASOBO_material_kitty_glass":{"glassReflectionMaskFactor":1.0}}},{"name":"a340_wingSG","alphaMode":"BLEND","pbrMetallicRoughness":{"metallicFactor":0.0,"roughnessFactor":0.5,"baseColorTexture":{"index":8}}},{"name":"a340_bodySG","alphaMode":"BLEND","pbrMetallicRoughness":{"baseColorFactor":[0.800000011920929,0.800000011920929,0.800000011920929,1.0],"metallicFactor":0.0,"roughnessFactor":0.5}},{"name":"a340_tailSG","alphaMode":"BLEND","pbrMetallicRoughness":{"metallicFactor":0.0,"roughnessFactor":0.5,"baseColorTexture":{"index":9}}}],"meshes":[{"primitives":[{"attributes":{"COLOR_0":5,"NORMAL":2,"POSITION":0,"TANGENT":1,"TEXCOORD_0":3,"TEXCOORD_1":4},"indices":6,"material":0,"mode":4,"extras":{"ASOBO_primitive":{"PrimitiveCount":7920,"VertexType":"VTX","VertexVersion":2}}}],"name":"C0808118"},{"primitives":[{"attributes":{"COLOR_0":12,"NORMAL":9,"POSITION":7,"TANGENT":8,"TEXCOORD_0":10,"TEXCOORD_1":11},"indices":13,"material":1,"mode":4,"extras":{"ASOBO_primitive":{"PrimitiveCount":43776,"VertexType":"VTX","VertexVersion":2}}},{"attributes":{"COLOR_0":12,"NORMAL":9,"POSITION":7,"TANGENT":8,"TEXCOORD_0":10,"TEXCOORD_1":11},"indices":13,"material":2,"mode":4,"extras":{"ASOBO_primitive":{"PrimitiveCount":20304,"StartIndex":131328,"VertexType":"VTX","VertexVersion":2}}},{"attributes":{"COLOR_0":12,"NORMAL":9,"POSITION":7,"TANGENT":8,"TEXCOORD_0":10,"TEXCOORD_1":11},"indices":13,"material":3,"mode":4,"extras":{"ASOBO_primitive":{"PrimitiveCount":47326,"StartIndex":192240,"VertexType":"VTX","VertexVersion":2}}},{"attributes":{"COLOR_0":12,"NORMAL":9,"POSITION":7,"TANGENT":8,"TEXCOORD_0":10,"TEXCOORD_1":11},"indices":13,"material":3,"mode":4,"extras":{"ASOBO_primitive":{"BaseVertexIndex":65530,"PrimitiveCount":13154,"StartIndex":334218,"VertexType":"VTX","VertexVersion":2}}},{"attributes":{"COLOR_0":12,"NORMAL":9,"POSITION":7,"TANGENT":8,"TEXCOORD_0":10,"TEXCOORD_1":11},"indices":13,"material":4,"mode":4,"extras":{"ASOBO_primitive":{"BaseVertexIndex":65530,"PrimitiveCount":8972,"StartIndex":373680,"VertexType":"VTX","VertexVersion":2}}},{"attributes":{"COLOR_0":12,"NORMAL":9,"POSITION":7,"TANGENT":8,"TEXCOORD_0":10,"TEXCOORD_1":11},"indices":13,"material":5,"mode":4,"extras":{"ASOBO_primitive":{"BaseVertexIndex":65530,"PrimitiveCount":8640,"StartIndex":400596,"VertexType":"VTX","VertexVersion":2}}},{"attributes":{"COLOR_0":12,"NORMAL":9,"POSITION":7,"TANGENT":8,"TEXCOORD_0":10,"TEXCOORD_1":11},"indices":13,"material":6,"mode":4,"extras":{"ASOBO_primitive":{"BaseVertexIndex":65530,"PrimitiveCount":17278,"StartIndex":426516,"VertexType":"VTX","VertexVersion":2}}},{"attributes":{"COLOR_0":12,"NORMAL":9,"POSITION":7,"TANGENT":8,"TEXCOORD_0":10,"TEXCOORD_1":11},"indices":13,"material":7,"mode":4,"extras":{"ASOBO_primitive":{"BaseVertexIndex":65530,"PrimitiveCount":16,"StartIndex":478350,"VertexType":"VTX","VertexVersion":2}}},{"attributes":{"COLOR_0":12,"NORMAL":9,"POSITION":7,"TANGENT":8,"TEXCOORD_0":10,"TEXCOORD_1":11},"indices":13,"material":8,"mode":4,"extras":{"ASOBO_primitive":{"BaseVertexIndex":65530,"PrimitiveCount":32,"StartIndex":478398,"VertexType":"VTX","VertexVersion":2}}},{"attributes":{"COLOR_0":12,"NORMAL":9,"POSITION":7,"TANGENT":8,"TEXCOORD_0":10,"TEXCOORD_1":11},"indices":13,"material":9,"mode":4,"extras":{"ASOBO_primitive":{"BaseVertexIndex":65530,"PrimitiveCount":12892,"StartIndex":478494,"VertexType":"VTX","VertexVersion":2}}},{"attributes":{"COLOR_0":12,"NORMAL":9,"POSITION":7,"TANGENT":8,"TEXCOORD_0":10,"TEXCOORD_1":11},"indices":13,"material":10,"mode":4,"extras":{"ASOBO_primitive":{"BaseVertexIndex":65530,"PrimitiveCount":40618,"StartIndex":517170,"VertexType":"VTX","VertexVersion":2}}},{"attributes":{"COLOR_0":12,"NORMAL":9,"POSITION":7,"TANGENT":8,"TEXCOORD_0":10,"TEXCOORD_1":11},"indices":13,"material":11,"mode":4,"extras":{"ASOBO_primitive":{"BaseVertexIndex":65530,"PrimitiveCount":1816,"StartIndex":639024,"VertexType":"VTX","VertexVersion":2}}},{"attributes":{"COLOR_0":12,"NORMAL":9,"POSITION":7,"TANGENT":8,"TEXCOORD_0":10,"TEXCOORD_1":11},"indices":13,"material":12,"mode":4,"extras":{"ASOBO_primitive":{"BaseVertexIndex":65530,"PrimitiveCount":2500,"StartIndex":644472,"VertexType":"VTX","VertexVersion":2}}},{"attributes":{"COLOR_0":12,"NORMAL":9,"POSITION":7,"TANGENT":8,"TEXCOORD_0":10,"TEXCOORD_1":11},"indices":13,"material":12,"mode":4,"extras":{"ASOBO_primitive":{"BaseVertexIndex":131060,"PrimitiveCount":8924,"StartIndex":651972,"VertexType":"VTX","VertexVersion":2}}},{"attributes":{"COLOR_0":12,"NORMAL":9,"POSITION":7,"TANGENT":8,"TEXCOORD_0":10,"TEXCOORD_1":11},"indices":13,"material":13,"mode":4,"extras":{"ASOBO_primitive":{"BaseVertexIndex":131060,"PrimitiveCount":552,"StartIndex":678744,"VertexType":"VTX","VertexVersion":2}}},{"attributes":{"COLOR_0":12,"NORMAL":9,"POSITION":7,"TANGENT":8,"TEXCOORD_0":10,"TEXCOORD_1":11},"indices":13,"material":14,"mode":4,"extras":{"ASOBO_primitive":{"BaseVertexIndex":131060,"PrimitiveCount":248,"StartIndex":680400,"VertexType":"VTX","VertexVersion":2}}},{"attributes":{"COLOR_0":12,"NORMAL":9,"POSITION":7,"TANGENT":8,"TEXCOORD_0":10,"TEXCOORD_1":11},"indices":13,"material":15,"mode":4,"extras":{"ASOBO_primitive":{"BaseVertexIndex":131060,"PrimitiveCount":12280,"StartIndex":681144,"VertexType":"VTX","VertexVersion":2}}},{"attributes":{"COLOR_0":12,"NORMAL":9,"POSITION":7,"TANGENT":8,"TEXCOORD_0":10,"TEXCOORD_1":11},"indices":13,"material":16,"mode":4,"extras":{"ASOBO_primitive":{"BaseVertexIndex":131060,"PrimitiveCount":3588,"StartIndex":717984,"VertexType":"VTX","VertexVersion":2}}},{"attributes":{"COLOR_0":12,"NORMAL":9,"POSITION":7,"TANGENT":8,"TEXCOORD_0":10,"TEXCOORD_1":11},"indices":13,"material":17,"mode":4,"extras":{"ASOBO_primitive":{"BaseVertexIndex":131060,"PrimitiveCount":8016,"StartIndex":728748,"VertexType":"VTX","VertexVersion":2}}},{"attributes":{"COLOR_0":12,"NORMAL":9,"POSITION":7,"TANGENT":8,"TEXCOORD_0":10,"TEXCOORD_1":11},"indices":13,"material":18,"mode":4,"extras":{"ASOBO_primitive":{"BaseVertexIndex":131060,"PrimitiveCount":9386,"StartIndex":752796,"VertexType":"VTX","VertexVersion":2}}},{"attributes":{"COLOR_0":12,"NORMAL":9,"POSITION":7,"TANGENT":8,"TEXCOORD_0":10,"TEXCOORD_1":11},"indices":13,"material":19,"mode":4,"extras":{"ASOBO_primitive":{"BaseVertexIndex":131060,"PrimitiveCount":1016,"StartIndex":780954,"VertexType":"VTX","VertexVersion":2}}}],"name":"A-340"}],"nodes":[{"rotation":[0.7071068286895752,0.0,0.0,0.7071067094802856],"mesh":0,"name":"C0808118"},{"rotation":[0.7071068286895752,0.0,0.0,0.7071067094802856],"mesh":1,"name":"A-340"}],"scene":0,"scenes":[{"nodes":[0,1],"name":"Scene"}],"textures":[{"extensions":{"MSFT_texture_dds":{"source":0}}},{"extensions":{"MSFT_texture_dds":{"source":1}}},{"extensions":{"MSFT_texture_dds":{"source":2}}},{"extensions":{"MSFT_texture_dds":{"source":3}}},{"extensions":{"MSFT_texture_dds":{"source":2}}},{"extensions":{"MSFT_texture_dds":{"source":4}}},{"extensions":{"MSFT_texture_dds":{"source":5}}},{"extensions":{"MSFT_texture_dds":{"source":6}}},{"extensions":{"MSFT_texture_dds":{"source":7}}},{"extensions":{"MSFT_texture_dds":{"source":8}}}],"extensionsUsed":["ASOBO_normal_map_convention","ASOBO_material_glass","ASOBO_material_kitty_glass","MSFT_texture_dds","ASOBO_asset_optimized"],"buffers":[{"byteLength":7748664,"uri":"planedites.bin"}],"images":[{"uri":"ENGINE.PNG.DDS","name":"engine","extras":"ASOBO_image_converted_meta"},{"uri":"ENG-BACK.PNG.DDS","name":"eng-back","extras":"ASOBO_image_converted_meta"},{"uri":"ENG-STEEL.PNG.DDS","name":"eng-steel","extras":"ASOBO_image_converted_meta"},{"uri":"SUPPORT.PNG.DDS","name":"support","extras":"ASOBO_image_converted_meta"},{"uri":"A340-BODYCOLOR.PNG.DDS","name":"a340-bodycolor","extras":"ASOBO_image_converted_meta"},{"uri":"ROTOR.PNG.DDS","name":"rotor","extras":"ASOBO_image_converted_meta"},{"uri":"A340-BO1.PNG.DDS","name":"a340-bo1","extras":"ASOBO_image_converted_meta"},{"uri":"WING_DIF.PNG.DDS","name":"wing_dif","extras":"ASOBO_image_converted_meta"},{"uri":"TAIL_DIF.PNG.DDS","name":"tail_dif","extras":"ASOBO_image_converted_meta"}]}
