{"accessors":[{"bufferView":0,"componentType":5126,"count":8,"min":[-0.24400000274181367,0.0514100007712841,-0.14100000262260438],"max":[0.24400000274181367,2.980870008468628,0.28200000524520876],"type":"VEC3","name":"part000_vertices#0_POSITION"},{"bufferView":0,"byteOffset":12,"componentType":5120,"count":8,"type":"VEC4","name":"part000_vertices#0_TANGENT"},{"bufferView":0,"byteOffset":16,"componentType":5120,"count":8,"type":"VEC4","name":"part000_vertices#0_NORMAL"},{"bufferView":0,"byteOffset":20,"componentType":5122,"count":8,"type":"VEC2","name":"part000_vertices#0_TEXCOORD_0"},{"bufferView":0,"byteOffset":24,"componentType":5122,"count":8,"type":"VEC2","name":"part000_vertices#0_TEXCOORD_1"},{"bufferView":0,"byteOffset":28,"componentType":5123,"count":8,"type":"VEC4","name":"part000_vertices#0_COLOR_0"},{"bufferView":1,"componentType":5123,"count":12,"type":"SCALAR","name":"part000_indices#0"},{"bufferView":0,"byteOffset":288,"componentType":5126,"count":4,"min":[-0.24400000274181367,0.0514100007712841,-0.14100000262260438],"max":[-3.45339005277498e-17,2.980870008468628,0.28200000524520876],"type":"VEC3","name":"part001_vertices#0_POSITION"},{"bufferView":0,"byteOffset":300,"componentType":5120,"count":4,"type":"VEC4","name":"part001_vertices#0_TANGENT"},{"bufferView":0,"byteOffset":304,"componentType":5120,"count":4,"type":"VEC4","name":"part001_vertices#0_NORMAL"},{"bufferView":0,"byteOffset":308,"componentType":5122,"count":4,"type":"VEC2","name":"part001_vertices#0_TEXCOORD_0"},{"bufferView":0,"byteOffset":312,"componentType":5122,"count":4,"type":"VEC2","name":"part001_vertices#0_TEXCOORD_1"},{"bufferView":0,"byteOffset":316,"componentType":5123,"count":4,"type":"VEC4","name":"part001_vertices#0_COLOR_0"},{"bufferView":1,"byteOffset":24,"componentType":5123,"count":6,"type":"SCALAR","name":"part001_indices#0"},{"bufferView":0,"byteOffset":432,"componentType":5126,"count":3,"min":[-0.24400000274181367,2.980870008468628,-0.14100000262260438],"max":[0.24400000274181367,2.980870008468628,0.28200000524520876],"type":"VEC3","name":"part002_vertices#0_POSITION"},{"bufferView":0,"byteOffset":444,"componentType":5120,"count":3,"type":"VEC4","name":"part002_vertices#0_TANGENT"},{"bufferView":0,"byteOffset":448,"componentType":5120,"count":3,"type":"VEC4","name":"part002_vertices#0_NORMAL"},{"bufferView":0,"byteOffset":452,"componentType":5122,"count":3,"type":"VEC2","name":"part002_vertices#0_TEXCOORD_0"},{"bufferView":0,"byteOffset":456,"componentType":5122,"count":3,"type":"VEC2","name":"part002_vertices#0_TEXCOORD_1"},{"bufferView":0,"byteOffset":460,"componentType":5123,"count":3,"type":"VEC4","name":"part002_vertices#0_COLOR_0"},{"bufferView":1,"byteOffset":36,"componentType":5123,"count":3,"type":"SCALAR","name":"part002_indices#0"}],"asset":{"generator":"ModelConverterX","version":"2.0","extensions":{"ASOBO_asset_optimized":{"BoundingBoxMax":[0.24400000274181367,2.980870008468628,0.28200000524520876],"BoundingBoxMin":[-0.24400000274181367,0.0514100007712841,-0.14100000262260438],"MajorVersion":4,"MinorVersion":3,"UseCheckerboardMaterialForMissingTextures":true}}},"bufferViews":[{"buffer":0,"byteLength":540,"byteStride":36,"target":34962,"name":"BufferViewVertexND"},{"buffer":0,"byteLength":42,"byteOffset":540,"target":34963,"name":"BufferViewIndex"}],"extensionsRequired":["MSFT_texture_dds"],"materials":[{"name":"Top","doubleSided":true,"pbrMetallicRoughness":{"baseColorFactor":[0.10114183276891709,0.10114183276891709,0.10114183276891709,1.0],"metallicFactor":0.0},"extensions":{"ASOBO_material_day_night_switch":{}}},{"name":"VertSign3","doubleSided":true,"pbrMetallicRoughness":{"metallicFactor":0.0,"baseColorTexture":{"index":0}},"extensions":{"ASOBO_material_day_night_switch":{}}},{"name":"VertSigns02","doubleSided":true,"pbrMetallicRoughness":{"metallicFactor":0.0,"baseColorTexture":{"index":1}},"extensions":{"ASOBO_material_day_night_switch":{}}}],"meshes":[{"primitives":[{"attributes":{"COLOR_0":5,"NORMAL":2,"POSITION":0,"TANGENT":1,"TEXCOORD_0":3,"TEXCOORD_1":4},"indices":6,"material":2,"mode":4,"extras":{"ASOBO_primitive":{"PrimitiveCount":4,"VertexType":"VTX","VertexVersion":2}}}],"name":"part000"},{"primitives":[{"attributes":{"COLOR_0":12,"NORMAL":9,"POSITION":7,"TANGENT":8,"TEXCOORD_0":10,"TEXCOORD_1":11},"indices":13,"material":1,"mode":4,"extras":{"ASOBO_primitive":{"PrimitiveCount":2,"VertexType":"VTX","VertexVersion":2}}}],"name":"part001"},{"primitives":[{"attributes":{"COLOR_0":19,"NORMAL":16,"POSITION":14,"TANGENT":15,"TEXCOORD_0":17,"TEXCOORD_1":18},"indices":20,"material":0,"mode":4,"extras":{"ASOBO_primitive":{"PrimitiveCount":1,"VertexType":"VTX","VertexVersion":2}}}],"name":"part002"}],"nodes":[{"name":"node0","children":[1,2,3]},{"mesh":0,"name":"node6"},{"mesh":1,"name":"node7"},{"mesh":2,"name":"node8"}],"scene":0,"scenes":[{"nodes":[0]}],"textures":[{"extensions":{"MSFT_texture_dds":{"source":0}}},{"extensions":{"MSFT_texture_dds":{"source":1}}}],"extensionsUsed":["ASOBO_material_day_night_switch","MSFT_texture_dds","ASOBO_asset_optimized"],"buffers":[{"byteLength":582,"uri":"pannel_LOD1.bin"}],"images":[{"uri":"T2SIDEBLDSIDES.PNG.DDS.DDS","extras":"ASOBO_image_converted_meta"},{"uri":"LANC_INTERIOR2.PNG.DDS.DDS","extras":"ASOBO_image_converted_meta"}]}
