{"accessors":[{"bufferView":0,"componentType":5126,"count":2133,"min":[-5.171000003814697,-0.05000000074505806,-0.6910000443458557],"max":[5.1610002517700199,0.05000000074505806,0.009000000543892384],"type":"VEC3","name":"Text.001_vertices#0_POSITION"},{"bufferView":0,"byteOffset":12,"componentType":5120,"count":2133,"type":"VEC4","name":"Text.001_vertices#0_TANGENT"},{"bufferView":0,"byteOffset":16,"componentType":5120,"count":2133,"type":"VEC4","name":"Text.001_vertices#0_NORMAL"},{"bufferView":0,"byteOffset":20,"componentType":5122,"count":2133,"type":"VEC2","name":"Text.001_vertices#0_TEXCOORD_0"},{"bufferView":0,"byteOffset":24,"componentType":5122,"count":2133,"type":"VEC2","name":"Text.001_vertices#0_TEXCOORD_1"},{"bufferView":0,"byteOffset":28,"componentType":5123,"count":2133,"type":"VEC4","name":"Text.001_vertices#0_COLOR_0"},{"bufferView":1,"componentType":5123,"count":4932,"type":"SCALAR","name":"Text.001_indices#0"}],"asset":{"generator":"Extended Khronos glTF Blender I/O v1.0.0","version":"2.0","extensions":{"ASOBO_asset_optimized":{"BoundingBoxMax":[5.1610002517700199,0.05000000074505806,0.009000000543892384],"BoundingBoxMin":[-5.171000003814697,-0.05000000074505806,-0.6910000443458557],"MajorVersion":4,"MinorVersion":3,"UseCheckerboardMaterialForMissingTextures":true},"ASOBO_normal_map_convention":{"tangent_space_convention":"DirectX"}}},"bufferViews":[{"buffer":0,"byteLength":76788,"byteStride":36,"target":34962,"name":"BufferViewVertexND"},{"buffer":0,"byteLength":9864,"byteOffset":76788,"target":34963,"name":"BufferViewIndex"}],"extensionsRequired":["MSFT_texture_dds"],"materials":[{"name":"Material.002","normalTexture":{"index":0},"occlusionTexture":{"index":1},"pbrMetallicRoughness":{"baseColorTexture":{"index":2},"metallicRoughnessTexture":{"index":1}}}],"meshes":[{"primitives":[{"attributes":{"COLOR_0":5,"NORMAL":2,"POSITION":0,"TANGENT":1,"TEXCOORD_0":3,"TEXCOORD_1":4},"indices":6,"material":0,"mode":4,"extras":{"ASOBO_primitive":{"PrimitiveCount":1644,"VertexType":"VTX","VertexVersion":2}}}],"name":"Text.001"}],"nodes":[{"mesh":0,"name":"Text"}],"scene":0,"scenes":[{"nodes":[0],"name":"Scene","extras":{"glTF2ExportSettings":{"export_extras":1,"export_generate_guid":1,"export_lods":0,"export_texture_dir":"../texture","export_xml":1,"export_xml_file":"azghaaarterm","use_selection":1}}}],"textures":[{"extensions":{"MSFT_texture_dds":{"source":0}}},{"extensions":{"MSFT_texture_dds":{"source":1}}},{"extensions":{"MSFT_texture_dds":{"source":2}}}],"extensionsUsed":["ASOBO_normal_map_convention","MSFT_texture_dds","ASOBO_asset_optimized"],"buffers":[{"byteLength":86652,"uri":"azghaaarterm.bin"}],"images":[{"uri":"METAL034_2K_NORMALDX.PNG.DDS","name":"Metal034_2K_NormalDX","extras":"ASOBO_image_converted_meta"},{"uri":"METAL034_2K_ROUGHNESS.PNG.DDS","name":"Metal034_2K_Roughness","extras":"ASOBO_image_converted_meta"},{"uri":"METAL034_2K_COLOR.PNG.DDS","name":"Metal034_2K_Color","extras":"ASOBO_image_converted_meta"}]}
