{"accessors":[{"bufferView":0,"componentType":5126,"count":294,"min":[-0.22924651205539704,0.0003800000122282654,-0.11784999817609787],"max":[0.17527000606060029,0.24277999997138978,0.12451999634504318],"type":"VEC3","name":"ObjLib04_MODEL_vertices#0_POSITION"},{"bufferView":0,"byteOffset":12,"componentType":5120,"count":294,"type":"VEC4","name":"ObjLib04_MODEL_vertices#0_TANGENT"},{"bufferView":0,"byteOffset":16,"componentType":5120,"count":294,"type":"VEC4","name":"ObjLib04_MODEL_vertices#0_NORMAL"},{"bufferView":0,"byteOffset":20,"componentType":5122,"count":294,"type":"VEC2","name":"ObjLib04_MODEL_vertices#0_TEXCOORD_0"},{"bufferView":0,"byteOffset":24,"componentType":5122,"count":294,"type":"VEC2","name":"ObjLib04_MODEL_vertices#0_TEXCOORD_1"},{"bufferView":0,"byteOffset":28,"componentType":5123,"count":294,"type":"VEC4","name":"ObjLib04_MODEL_vertices#0_COLOR_0"},{"bufferView":1,"componentType":5123,"count":678,"type":"SCALAR","name":"ObjLib04_MODEL_indices#0"}],"asset":{"generator":"Extended Khronos glTF Blender I/O v1.0.0","version":"2.0","extensions":{"ASOBO_asset_optimized":{"BoundingBoxMax":[0.17527000606060029,0.24277999997138978,0.12451999634504318],"BoundingBoxMin":[-0.22924651205539704,0.0003800000122282654,-0.11784999817609787],"MajorVersion":4,"MinorVersion":3,"UseCheckerboardMaterialForMissingTextures":true},"ASOBO_normal_map_convention":{"tangent_space_convention":"DirectX"}}},"bufferViews":[{"buffer":0,"byteLength":10584,"byteStride":36,"target":34962,"name":"BufferViewVertexND"},{"buffer":0,"byteLength":1356,"byteOffset":10584,"target":34963,"name":"BufferViewIndex"}],"extensionsRequired":["MSFT_texture_dds"],"materials":[{"name":"Material__1","normalTexture":{"index":0},"pbrMetallicRoughness":{"metallicFactor":0.0,"roughnessFactor":0.5,"baseColorTexture":{"index":1}},"extensions":{"ASOBO_material_day_night_switch":{}}}],"meshes":[{"primitives":[{"attributes":{"COLOR_0":5,"NORMAL":2,"POSITION":0,"TANGENT":1,"TEXCOORD_0":3,"TEXCOORD_1":4},"indices":6,"material":0,"mode":4,"extras":{"ASOBO_primitive":{"PrimitiveCount":226,"VertexType":"VTX","VertexVersion":2}}}],"name":"ObjLib04_MODEL"}],"nodes":[{"rotation":[0.7071068286895752,0.0,0.0,0.7071067094802856],"mesh":0,"name":"ObjLib04_MODEL"}],"scene":0,"scenes":[{"nodes":[0],"name":"Scene"}],"textures":[{"extensions":{"MSFT_texture_dds":{"source":0}}},{"extensions":{"MSFT_texture_dds":{"source":1}}}],"extensionsUsed":["ASOBO_normal_map_convention","ASOBO_material_day_night_switch","MSFT_texture_dds","ASOBO_asset_optimized"],"buffers":[{"byteLength":11940,"uri":"computer.bin"}],"images":[{"uri":"OBJLIB04_NRM.PNG.DDS","name":"ObjLib04_NRM","extras":"ASOBO_image_converted_meta"},{"uri":"OBJLIB04_CUT.PNG.DDS","name":"ObjLib04_CUT","extras":"ASOBO_image_converted_meta"}]}
