{"accessors":[{"bufferView":0,"componentType":5126,"count":192,"min":[-1.0,-1.0,-0.15000000596046449],"max":[1.0,1.0,0.15000000596046449],"type":"VEC3","name":"Cylinder_vertices#0_POSITION"},{"bufferView":0,"byteOffset":12,"componentType":5120,"count":192,"type":"VEC4","name":"Cylinder_vertices#0_TANGENT"},{"bufferView":0,"byteOffset":16,"componentType":5120,"count":192,"type":"VEC4","name":"Cylinder_vertices#0_NORMAL"},{"bufferView":0,"byteOffset":20,"componentType":5122,"count":192,"type":"VEC2","name":"Cylinder_vertices#0_TEXCOORD_0"},{"bufferView":0,"byteOffset":24,"componentType":5122,"count":192,"type":"VEC2","name":"Cylinder_vertices#0_TEXCOORD_1"},{"bufferView":0,"byteOffset":28,"componentType":5123,"count":192,"type":"VEC4","name":"Cylinder_vertices#0_COLOR_0"},{"bufferView":1,"componentType":5123,"count":372,"type":"SCALAR","name":"Cylinder_indices#1"}],"asset":{"generator":"Extended Khronos glTF Blender I/O v1.0.0","version":"2.0","extensions":{"ASOBO_asset_optimized":{"BoundingBoxMax":[1.0,1.0,0.15000000596046449],"BoundingBoxMin":[-1.0,-1.0,-0.15000000596046449],"MajorVersion":4,"MinorVersion":3,"UseCheckerboardMaterialForMissingTextures":true},"ASOBO_normal_map_convention":{"tangent_space_convention":"DirectX"}}},"bufferViews":[{"buffer":0,"byteLength":6912,"byteStride":36,"target":34962,"name":"BufferViewVertexND"},{"buffer":0,"byteLength":744,"byteOffset":6912,"target":34963,"name":"BufferViewIndex"}],"extensionsRequired":["MSFT_texture_dds"],"materials":[{"name":"coin-texture","normalTexture":{"index":0},"occlusionTexture":{"index":1},"pbrMetallicRoughness":{"baseColorTexture":{"index":2},"metallicRoughnessTexture":{"index":1}}},{"name":"gold","normalTexture":{"index":3},"occlusionTexture":{"index":4},"pbrMetallicRoughness":{"baseColorTexture":{"index":5},"metallicRoughnessTexture":{"index":4}}}],"meshes":[{"primitives":[{"attributes":{"COLOR_0":5,"NORMAL":2,"POSITION":0,"TANGENT":1,"TEXCOORD_0":3,"TEXCOORD_1":4},"indices":6,"material":0,"mode":4,"extras":{"ASOBO_primitive":{"PrimitiveCount":60,"VertexType":"VTX","VertexVersion":2}}},{"attributes":{"COLOR_0":5,"NORMAL":2,"POSITION":0,"TANGENT":1,"TEXCOORD_0":3,"TEXCOORD_1":4},"indices":6,"material":1,"mode":4,"extras":{"ASOBO_primitive":{"PrimitiveCount":64,"StartIndex":180,"VertexType":"VTX","VertexVersion":2}}}],"name":"Cylinder"}],"nodes":[{"rotation":[0.7071068286895752,0.0,0.0,0.7071067094802856],"mesh":0,"name":"Cylinder"}],"scene":0,"scenes":[{"nodes":[0],"name":"Scene"}],"textures":[{"extensions":{"MSFT_texture_dds":{"source":0}}},{"extensions":{"MSFT_texture_dds":{"source":1}}},{"extensions":{"MSFT_texture_dds":{"source":2}}},{"extensions":{"MSFT_texture_dds":{"source":0}}},{"extensions":{"MSFT_texture_dds":{"source":1}}},{"extensions":{"MSFT_texture_dds":{"source":3}}}],"extensionsUsed":["ASOBO_normal_map_convention","MSFT_texture_dds","ASOBO_asset_optimized"],"buffers":[{"byteLength":7656,"uri":"coinbronze.bin"}],"images":[{"uri":"METAL034_2K_NORMALDX.PNG.DDS","name":"Metal034_2K_NormalDX","extras":"ASOBO_image_converted_meta"},{"uri":"METAL034_2K_ROUGHNESS.PNG.DDS","name":"Metal034_2K_Roughness","extras":"ASOBO_image_converted_meta"},{"uri":"TEXTUREPIECEBRONZE.PNG.DDS","name":"texturepiecebronze","extras":"ASOBO_image_converted_meta"},{"uri":"BRONZE.PNG.DDS","name":"bronze","extras":"ASOBO_image_converted_meta"}]}
