{"accessors":[{"bufferView":0,"componentType":5126,"count":2972,"min":[-36.61194610595703,30.249908447265626,-41.985260009765628],"max":[37.711151123046878,165.54092407226563,32.06479263305664],"type":"VEC3","name":"Mesh.004_vertices#0_POSITION"},{"bufferView":0,"byteOffset":12,"componentType":5120,"count":2972,"type":"VEC4","name":"Mesh.004_vertices#0_TANGENT"},{"bufferView":0,"byteOffset":16,"componentType":5120,"count":2972,"type":"VEC4","name":"Mesh.004_vertices#0_NORMAL"},{"bufferView":0,"byteOffset":20,"componentType":5122,"count":2972,"type":"VEC2","name":"Mesh.004_vertices#0_TEXCOORD_0"},{"bufferView":0,"byteOffset":24,"componentType":5122,"count":2972,"type":"VEC2","name":"Mesh.004_vertices#0_TEXCOORD_1"},{"bufferView":0,"byteOffset":28,"componentType":5123,"count":2972,"type":"VEC4","name":"Mesh.004_vertices#0_COLOR_0"},{"bufferView":1,"componentType":5123,"count":6720,"type":"SCALAR","name":"Mesh.004_indices#0"},{"bufferView":0,"byteOffset":106992,"componentType":5126,"count":1310,"min":[15.148422241210938,42.644927978515628,-9.259414672851563],"max":[36.810760498046878,93.18653106689453,41.395408630371097],"type":"VEC3","name":"Mesh.001_vertices#0_POSITION"},{"bufferView":0,"byteOffset":107004,"componentType":5120,"count":1310,"type":"VEC4","name":"Mesh.001_vertices#0_TANGENT"},{"bufferView":0,"byteOffset":107008,"componentType":5120,"count":1310,"type":"VEC4","name":"Mesh.001_vertices#0_NORMAL"},{"bufferView":0,"byteOffset":107012,"componentType":5122,"count":1310,"type":"VEC2","name":"Mesh.001_vertices#0_TEXCOORD_0"},{"bufferView":0,"byteOffset":107016,"componentType":5122,"count":1310,"type":"VEC2","name":"Mesh.001_vertices#0_TEXCOORD_1"},{"bufferView":0,"byteOffset":107020,"componentType":5123,"count":1310,"type":"VEC4","name":"Mesh.001_vertices#0_COLOR_0"},{"bufferView":1,"byteOffset":13440,"componentType":5123,"count":2178,"type":"SCALAR","name":"Mesh.001_indices#0"},{"bufferView":0,"byteOffset":154152,"componentType":5126,"count":1310,"min":[-35.12335968017578,42.644927978515628,-9.259414672851563],"max":[-13.461029052734375,93.18653106689453,41.395408630371097],"type":"VEC3","name":"Mesh.002_vertices#0_POSITION"},{"bufferView":0,"byteOffset":154164,"componentType":5120,"count":1310,"type":"VEC4","name":"Mesh.002_vertices#0_TANGENT"},{"bufferView":0,"byteOffset":154168,"componentType":5120,"count":1310,"type":"VEC4","name":"Mesh.002_vertices#0_NORMAL"},{"bufferView":0,"byteOffset":154172,"componentType":5122,"count":1310,"type":"VEC2","name":"Mesh.002_vertices#0_TEXCOORD_0"},{"bufferView":0,"byteOffset":154176,"componentType":5122,"count":1310,"type":"VEC2","name":"Mesh.002_vertices#0_TEXCOORD_1"},{"bufferView":0,"byteOffset":154180,"componentType":5123,"count":1310,"type":"VEC4","name":"Mesh.002_vertices#0_COLOR_0"},{"bufferView":1,"byteOffset":17796,"componentType":5123,"count":2178,"type":"SCALAR","name":"Mesh.002_indices#0"},{"bufferView":0,"byteOffset":201312,"componentType":5126,"count":1330,"min":[-37.34148406982422,113.72349548339844,3.7894134521484377],"max":[-21.253395080566408,151.25958251953126,41.40958786010742],"type":"VEC3","name":"Mesh.003_vertices#0_POSITION"},{"bufferView":0,"byteOffset":201324,"componentType":5120,"count":1330,"type":"VEC4","name":"Mesh.003_vertices#0_TANGENT"},{"bufferView":0,"byteOffset":201328,"componentType":5120,"count":1330,"type":"VEC4","name":"Mesh.003_vertices#0_NORMAL"},{"bufferView":0,"byteOffset":201332,"componentType":5122,"count":1330,"type":"VEC2","name":"Mesh.003_vertices#0_TEXCOORD_0"},{"bufferView":0,"byteOffset":201336,"componentType":5122,"count":1330,"type":"VEC2","name":"Mesh.003_vertices#0_TEXCOORD_1"},{"bufferView":0,"byteOffset":201340,"componentType":5123,"count":1330,"type":"VEC4","name":"Mesh.003_vertices#0_COLOR_0"},{"bufferView":1,"byteOffset":22152,"componentType":5123,"count":2238,"type":"SCALAR","name":"Mesh.003_indices#0"},{"bufferView":0,"byteOffset":249192,"componentType":5126,"count":1381,"min":[22.382354736328126,113.72349548339844,3.7894134521484377],"max":[38.470458984375,151.25958251953126,41.40958786010742],"type":"VEC3","name":"Mesh_vertices#0_POSITION"},{"bufferView":0,"byteOffset":249204,"componentType":5120,"count":1381,"type":"VEC4","name":"Mesh_vertices#0_TANGENT"},{"bufferView":0,"byteOffset":249208,"componentType":5120,"count":1381,"type":"VEC4","name":"Mesh_vertices#0_NORMAL"},{"bufferView":0,"byteOffset":249212,"componentType":5122,"count":1381,"type":"VEC2","name":"Mesh_vertices#0_TEXCOORD_0"},{"bufferView":0,"byteOffset":249216,"componentType":5122,"count":1381,"type":"VEC2","name":"Mesh_vertices#0_TEXCOORD_1"},{"bufferView":0,"byteOffset":249220,"componentType":5123,"count":1381,"type":"VEC4","name":"Mesh_vertices#0_COLOR_0"},{"bufferView":1,"byteOffset":26628,"componentType":5123,"count":2388,"type":"SCALAR","name":"Mesh_indices#0"}],"asset":{"generator":"Extended Khronos glTF Blender I/O v1.0.0","version":"2.0","extensions":{"ASOBO_asset_optimized":{"BoundingBoxMax":[38.470458984375,165.54092407226563,41.40958786010742],"BoundingBoxMin":[-37.34148406982422,30.249908447265626,-41.985260009765628],"MajorVersion":4,"MinorVersion":3,"UseCheckerboardMaterialForMissingTextures":true},"ASOBO_normal_map_convention":{"tangent_space_convention":"DirectX"}}},"bufferViews":[{"buffer":0,"byteLength":298908,"byteStride":36,"target":34962,"name":"BufferViewVertexND"},{"buffer":0,"byteLength":31404,"byteOffset":298908,"target":34963,"name":"BufferViewIndex"}],"extensionsRequired":["MSFT_texture_dds"],"materials":[{"name":"blinn1","pbrMetallicRoughness":{"metallicFactor":0.0,"roughnessFactor":0.5,"baseColorTexture":{"index":0}},"extensions":{"ASOBO_material_day_night_switch":{}}}],"meshes":[{"primitives":[{"attributes":{"COLOR_0":5,"NORMAL":2,"POSITION":0,"TANGENT":1,"TEXCOORD_0":3,"TEXCOORD_1":4},"indices":6,"material":0,"mode":4,"extras":{"ASOBO_primitive":{"PrimitiveCount":2240,"VertexType":"VTX","VertexVersion":2}}}],"name":"Mesh.004"},{"primitives":[{"attributes":{"COLOR_0":12,"NORMAL":9,"POSITION":7,"TANGENT":8,"TEXCOORD_0":10,"TEXCOORD_1":11},"indices":13,"material":0,"mode":4,"extras":{"ASOBO_primitive":{"PrimitiveCount":726,"VertexType":"VTX","VertexVersion":2}}}],"name":"Mesh.001"},{"primitives":[{"attributes":{"COLOR_0":19,"NORMAL":16,"POSITION":14,"TANGENT":15,"TEXCOORD_0":17,"TEXCOORD_1":18},"indices":20,"material":0,"mode":4,"extras":{"ASOBO_primitive":{"PrimitiveCount":726,"VertexType":"VTX","VertexVersion":2}}}],"name":"Mesh.002"},{"primitives":[{"attributes":{"COLOR_0":26,"NORMAL":23,"POSITION":21,"TANGENT":22,"TEXCOORD_0":24,"TEXCOORD_1":25},"indices":27,"material":0,"mode":4,"extras":{"ASOBO_primitive":{"PrimitiveCount":746,"VertexType":"VTX","VertexVersion":2}}}],"name":"Mesh.003"},{"primitives":[{"attributes":{"COLOR_0":33,"NORMAL":30,"POSITION":28,"TANGENT":29,"TEXCOORD_0":31,"TEXCOORD_1":32},"indices":34,"material":0,"mode":4,"extras":{"ASOBO_primitive":{"PrimitiveCount":796,"VertexType":"VTX","VertexVersion":2}}}],"name":"Mesh"}],"nodes":[{"translation":[7.358891487121582,4.958309173583984,6.925790786743164],"rotation":[0.483536034822464,0.33687159419059756,-0.20870360732078553,0.7804827094078064],"name":"Camera"},{"mesh":0,"name":"polySurface26"},{"mesh":1,"name":"polySurface27"},{"mesh":2,"name":"polySurface28"},{"mesh":3,"name":"polySurface29"},{"mesh":4,"name":"polySurface3"},{"translation":[0.0,0.0,-0.000003635883331298828],"rotation":[0.7071068286895752,0.0,0.0,0.7071067094802856],"scale":[0.009999999776482582,0.009999999776482582,0.009999999776482582],"name":"group2","children":[1,2,3,4,5]}],"scene":0,"scenes":[{"nodes":[0,6],"name":"Scene"}],"textures":[{"extensions":{"MSFT_texture_dds":{"source":0}}}],"extensionsUsed":["ASOBO_normal_map_convention","ASOBO_tags","ASOBO_material_day_night_switch","MSFT_texture_dds","ASOBO_asset_optimized"],"buffers":[{"byteLength":330312,"uri":"tractor.bin"}],"images":[{"uri":"TEXURE TRACTOR.JPG.DDS","name":"Texure Tractor","extras":"ASOBO_image_converted_meta"}]}
