{"accessors":[{"bufferView":0,"componentType":5126,"count":129,"min":[-15.08372974395752,-0.01042999979108572,-0.010160000063478947],"max":[-10.617670059204102,3.393120050430298,2.2693700790405275],"type":"VEC3","name":"part000.002_vertices#0_POSITION"},{"bufferView":0,"byteOffset":12,"componentType":5120,"count":129,"type":"VEC4","name":"part000.002_vertices#0_TANGENT"},{"bufferView":0,"byteOffset":16,"componentType":5120,"count":129,"type":"VEC4","name":"part000.002_vertices#0_NORMAL"},{"bufferView":0,"byteOffset":20,"componentType":5122,"count":129,"type":"VEC2","name":"part000.002_vertices#0_TEXCOORD_0"},{"bufferView":0,"byteOffset":24,"componentType":5122,"count":129,"type":"VEC2","name":"part000.002_vertices#0_TEXCOORD_1"},{"bufferView":0,"byteOffset":28,"componentType":5123,"count":129,"type":"VEC4","name":"part000.002_vertices#0_COLOR_0"},{"bufferView":1,"componentType":5123,"count":129,"type":"SCALAR","name":"part000.002_indices#0"},{"bufferView":0,"byteOffset":4644,"componentType":5126,"count":6,"min":[-14.557929992675782,3.393120050430298,0.21171000599861146],"max":[-12.615150451660157,3.393120050430298,2.047489881515503],"type":"VEC3","name":"part009.001_vertices#0_POSITION"},{"bufferView":0,"byteOffset":4656,"componentType":5120,"count":6,"type":"VEC4","name":"part009.001_vertices#0_TANGENT"},{"bufferView":0,"byteOffset":4660,"componentType":5120,"count":6,"type":"VEC4","name":"part009.001_vertices#0_NORMAL"},{"bufferView":0,"byteOffset":4664,"componentType":5122,"count":6,"type":"VEC2","name":"part009.001_vertices#0_TEXCOORD_0"},{"bufferView":0,"byteOffset":4668,"componentType":5122,"count":6,"type":"VEC2","name":"part009.001_vertices#0_TEXCOORD_1"},{"bufferView":0,"byteOffset":4672,"componentType":5123,"count":6,"type":"VEC4","name":"part009.001_vertices#0_COLOR_0"},{"bufferView":1,"byteOffset":258,"componentType":5123,"count":6,"type":"SCALAR","name":"part009.001_indices#0"},{"bufferView":0,"byteOffset":4860,"componentType":5126,"count":57,"min":[-14.241720199584961,-0.01042999979108572,-0.009309999644756318],"max":[-13.1599702835083,0.45596998929977419,0.31553998589515688],"type":"VEC3","name":"part010.001_vertices#0_POSITION"},{"bufferView":0,"byteOffset":4872,"componentType":5120,"count":57,"type":"VEC4","name":"part010.001_vertices#0_TANGENT"},{"bufferView":0,"byteOffset":4876,"componentType":5120,"count":57,"type":"VEC4","name":"part010.001_vertices#0_NORMAL"},{"bufferView":0,"byteOffset":4880,"componentType":5122,"count":57,"type":"VEC2","name":"part010.001_vertices#0_TEXCOORD_0"},{"bufferView":0,"byteOffset":4884,"componentType":5122,"count":57,"type":"VEC2","name":"part010.001_vertices#0_TEXCOORD_1"},{"bufferView":0,"byteOffset":4888,"componentType":5123,"count":57,"type":"VEC4","name":"part010.001_vertices#0_COLOR_0"},{"bufferView":1,"byteOffset":270,"componentType":5123,"count":57,"type":"SCALAR","name":"part010.001_indices#0"},{"bufferView":0,"byteOffset":6912,"componentType":5126,"count":1992,"min":[-15.08372974395752,-0.014310000464320183,-0.010160000063478947],"max":[1.5134999752044678,4.102869987487793,2.2693700790405275],"type":"VEC3","name":"part001.001_vertices#0_POSITION"},{"bufferView":0,"byteOffset":6924,"componentType":5120,"count":1992,"type":"VEC4","name":"part001.001_vertices#0_TANGENT"},{"bufferView":0,"byteOffset":6928,"componentType":5120,"count":1992,"type":"VEC4","name":"part001.001_vertices#0_NORMAL"},{"bufferView":0,"byteOffset":6932,"componentType":5122,"count":1992,"type":"VEC2","name":"part001.001_vertices#0_TEXCOORD_0"},{"bufferView":0,"byteOffset":6936,"componentType":5122,"count":1992,"type":"VEC2","name":"part001.001_vertices#0_TEXCOORD_1"},{"bufferView":0,"byteOffset":6940,"componentType":5123,"count":1992,"type":"VEC4","name":"part001.001_vertices#0_COLOR_0"},{"bufferView":1,"byteOffset":384,"componentType":5123,"count":1992,"type":"SCALAR","name":"part001.001_indices#0"},{"bufferView":0,"byteOffset":78624,"componentType":5126,"count":678,"min":[-14.241720199584961,-0.014310000464320183,-0.009309999644756318],"max":[0.5444499850273132,0.6315100193023682,2.2693700790405275],"type":"VEC3","name":"part002.001_vertices#0_POSITION"},{"bufferView":0,"byteOffset":78636,"componentType":5120,"count":678,"type":"VEC4","name":"part002.001_vertices#0_TANGENT"},{"bufferView":0,"byteOffset":78640,"componentType":5120,"count":678,"type":"VEC4","name":"part002.001_vertices#0_NORMAL"},{"bufferView":0,"byteOffset":78644,"componentType":5122,"count":678,"type":"VEC2","name":"part002.001_vertices#0_TEXCOORD_0"},{"bufferView":0,"byteOffset":78648,"componentType":5122,"count":678,"type":"VEC2","name":"part002.001_vertices#0_TEXCOORD_1"},{"bufferView":0,"byteOffset":78652,"componentType":5123,"count":678,"type":"VEC4","name":"part002.001_vertices#0_COLOR_0"},{"bufferView":1,"byteOffset":4368,"componentType":5123,"count":678,"type":"SCALAR","name":"part002.001_indices#0"},{"bufferView":0,"byteOffset":103032,"componentType":5126,"count":18,"min":[1.5134999752044678,1.1630899906158448,1.8534416286304998e-16],"max":[1.5134999752044678,4.102869987487793,2.259200096130371],"type":"VEC3","name":"part003.001_vertices#0_POSITION"},{"bufferView":0,"byteOffset":103044,"componentType":5120,"count":18,"type":"VEC4","name":"part003.001_vertices#0_TANGENT"},{"bufferView":0,"byteOffset":103048,"componentType":5120,"count":18,"type":"VEC4","name":"part003.001_vertices#0_NORMAL"},{"bufferView":0,"byteOffset":103052,"componentType":5122,"count":18,"type":"VEC2","name":"part003.001_vertices#0_TEXCOORD_0"},{"bufferView":0,"byteOffset":103056,"componentType":5122,"count":18,"type":"VEC2","name":"part003.001_vertices#0_TEXCOORD_1"},{"bufferView":0,"byteOffset":103060,"componentType":5123,"count":18,"type":"VEC4","name":"part003.001_vertices#0_COLOR_0"},{"bufferView":1,"byteOffset":5724,"componentType":5123,"count":18,"type":"SCALAR","name":"part003.001_indices#0"},{"bufferView":0,"byteOffset":103680,"componentType":5126,"count":495,"min":[-7.126530170440674,-0.014310000464320183,1.9668400287628174],"max":[1.5134999752044678,1.2267199754714966,2.259200096130371],"type":"VEC3","name":"part004.001_vertices#0_POSITION"},{"bufferView":0,"byteOffset":103692,"componentType":5120,"count":495,"type":"VEC4","name":"part004.001_vertices#0_TANGENT"},{"bufferView":0,"byteOffset":103696,"componentType":5120,"count":495,"type":"VEC4","name":"part004.001_vertices#0_NORMAL"},{"bufferView":0,"byteOffset":103700,"componentType":5122,"count":495,"type":"VEC2","name":"part004.001_vertices#0_TEXCOORD_0"},{"bufferView":0,"byteOffset":103704,"componentType":5122,"count":495,"type":"VEC2","name":"part004.001_vertices#0_TEXCOORD_1"},{"bufferView":0,"byteOffset":103708,"componentType":5123,"count":495,"type":"VEC4","name":"part004.001_vertices#0_COLOR_0"},{"bufferView":1,"byteOffset":5760,"componentType":5123,"count":495,"type":"SCALAR","name":"part004.001_indices#0"},{"bufferView":0,"byteOffset":121500,"componentType":5126,"count":564,"min":[-15.08372974395752,-0.01042999979108572,-0.010160000063478947],"max":[-8.837929725646973,3.393120050430298,2.2693700790405275],"type":"VEC3","name":"part005.001_vertices#0_POSITION"},{"bufferView":0,"byteOffset":121512,"componentType":5120,"count":564,"type":"VEC4","name":"part005.001_vertices#0_TANGENT"},{"bufferView":0,"byteOffset":121516,"componentType":5120,"count":564,"type":"VEC4","name":"part005.001_vertices#0_NORMAL"},{"bufferView":0,"byteOffset":121520,"componentType":5122,"count":564,"type":"VEC2","name":"part005.001_vertices#0_TEXCOORD_0"},{"bufferView":0,"byteOffset":121524,"componentType":5122,"count":564,"type":"VEC2","name":"part005.001_vertices#0_TEXCOORD_1"},{"bufferView":0,"byteOffset":121528,"componentType":5123,"count":564,"type":"VEC4","name":"part005.001_vertices#0_COLOR_0"},{"bufferView":1,"byteOffset":6750,"componentType":5123,"count":564,"type":"SCALAR","name":"part005.001_indices#0"},{"bufferView":0,"byteOffset":141804,"componentType":5126,"count":735,"min":[-7.133389949798584,-0.014310000464320183,-8.735594780634633e-16],"max":[1.5134999752044678,1.230970025062561,1.9668400287628174],"type":"VEC3","name":"part006.001_vertices#0_POSITION"},{"bufferView":0,"byteOffset":141816,"componentType":5120,"count":735,"type":"VEC4","name":"part006.001_vertices#0_TANGENT"},{"bufferView":0,"byteOffset":141820,"componentType":5120,"count":735,"type":"VEC4","name":"part006.001_vertices#0_NORMAL"},{"bufferView":0,"byteOffset":141824,"componentType":5122,"count":735,"type":"VEC2","name":"part006.001_vertices#0_TEXCOORD_0"},{"bufferView":0,"byteOffset":141828,"componentType":5122,"count":735,"type":"VEC2","name":"part006.001_vertices#0_TEXCOORD_1"},{"bufferView":0,"byteOffset":141832,"componentType":5123,"count":735,"type":"VEC4","name":"part006.001_vertices#0_COLOR_0"},{"bufferView":1,"byteOffset":7878,"componentType":5123,"count":735,"type":"SCALAR","name":"part006.001_indices#0"},{"bufferView":0,"byteOffset":168264,"componentType":5126,"count":12,"min":[-12.325429916381836,1.2762399911880494,-1.5093799953595756e-15],"max":[1.4134999513626099,4.002870082855225,2.259200096130371],"type":"VEC3","name":"part007.001_vertices#0_POSITION"},{"bufferView":0,"byteOffset":168276,"componentType":5120,"count":12,"type":"VEC4","name":"part007.001_vertices#0_TANGENT"},{"bufferView":0,"byteOffset":168280,"componentType":5120,"count":12,"type":"VEC4","name":"part007.001_vertices#0_NORMAL"},{"bufferView":0,"byteOffset":168284,"componentType":5122,"count":12,"type":"VEC2","name":"part007.001_vertices#0_TEXCOORD_0"},{"bufferView":0,"byteOffset":168288,"componentType":5122,"count":12,"type":"VEC2","name":"part007.001_vertices#0_TEXCOORD_1"},{"bufferView":0,"byteOffset":168292,"componentType":5123,"count":12,"type":"VEC4","name":"part007.001_vertices#0_COLOR_0"},{"bufferView":1,"byteOffset":9348,"componentType":5123,"count":12,"type":"SCALAR","name":"part007.001_indices#0"},{"bufferView":0,"byteOffset":168696,"componentType":5126,"count":78,"min":[-12.425439834594727,1.1755000352859498,-1.5216272447439255e-15],"max":[1.5134999752044678,4.102869987487793,2.259200096130371],"type":"VEC3","name":"part008.001_vertices#0_POSITION"},{"bufferView":0,"byteOffset":168708,"componentType":5120,"count":78,"type":"VEC4","name":"part008.001_vertices#0_TANGENT"},{"bufferView":0,"byteOffset":168712,"componentType":5120,"count":78,"type":"VEC4","name":"part008.001_vertices#0_NORMAL"},{"bufferView":0,"byteOffset":168716,"componentType":5122,"count":78,"type":"VEC2","name":"part008.001_vertices#0_TEXCOORD_0"},{"bufferView":0,"byteOffset":168720,"componentType":5122,"count":78,"type":"VEC2","name":"part008.001_vertices#0_TEXCOORD_1"},{"bufferView":0,"byteOffset":168724,"componentType":5123,"count":78,"type":"VEC4","name":"part008.001_vertices#0_COLOR_0"},{"bufferView":1,"byteOffset":9372,"componentType":5123,"count":78,"type":"SCALAR","name":"part008.001_indices#0"}],"asset":{"generator":"Extended Khronos glTF Blender I/O v1.0.0","version":"2.0","extensions":{"ASOBO_asset_optimized":{"BoundingBoxMax":[1.5134999752044678,4.102869987487793,2.2693700790405275],"BoundingBoxMin":[-15.08372974395752,-0.014310000464320183,-0.010160000063478947],"MajorVersion":4,"MinorVersion":3,"UseCheckerboardMaterialForMissingTextures":true},"ASOBO_normal_map_convention":{"tangent_space_convention":"DirectX"}}},"bufferViews":[{"buffer":0,"byteLength":171504,"byteStride":36,"target":34962,"name":"BufferViewVertexND"},{"buffer":0,"byteLength":9528,"byteOffset":171504,"target":34963,"name":"BufferViewIndex"}],"extensionsRequired":["MSFT_texture_dds"],"materials":[{"name":"material01.002","pbrMetallicRoughness":{"metallicFactor":0.0,"roughnessFactor":0.5,"baseColorTexture":{"index":0}}},{"name":"material04.001","pbrMetallicRoughness":{"metallicFactor":0.0,"roughnessFactor":0.5,"baseColorTexture":{"index":1}}},{"name":"material06.001","pbrMetallicRoughness":{"metallicFactor":0.0,"roughnessFactor":0.5,"baseColorTexture":{"index":2}}},{"name":"material03.001","pbrMetallicRoughness":{"metallicFactor":0.0,"roughnessFactor":0.5,"baseColorTexture":{"index":3}}},{"name":"material07.001","pbrMetallicRoughness":{"metallicFactor":0.0,"roughnessFactor":0.5,"baseColorTexture":{"index":4}}},{"name":"material00.003","pbrMetallicRoughness":{"metallicFactor":0.0,"roughnessFactor":0.5,"baseColorTexture":{"index":5}}},{"name":"material10.001","pbrMetallicRoughness":{"metallicFactor":0.0,"roughnessFactor":0.5,"baseColorTexture":{"index":6}}},{"name":"material08.001","pbrMetallicRoughness":{"metallicFactor":0.0,"roughnessFactor":0.5,"baseColorTexture":{"index":7}}},{"name":"material09.001","pbrMetallicRoughness":{"metallicFactor":0.0,"roughnessFactor":0.5,"baseColorTexture":{"index":8}}},{"name":"material02.001","pbrMetallicRoughness":{"metallicFactor":0.0,"roughnessFactor":0.5,"baseColorTexture":{"index":9}}},{"name":"Material.001","pbrMetallicRoughness":{"metallicFactor":0.0,"roughnessFactor":0.5,"baseColorTexture":{"index":10}}}],"meshes":[{"primitives":[{"attributes":{"COLOR_0":5,"NORMAL":2,"POSITION":0,"TANGENT":1,"TEXCOORD_0":3,"TEXCOORD_1":4},"indices":6,"material":0,"mode":4,"extras":{"ASOBO_primitive":{"PrimitiveCount":43,"VertexType":"VTX","VertexVersion":2}}}],"name":"part000.002"},{"primitives":[{"attributes":{"COLOR_0":12,"NORMAL":9,"POSITION":7,"TANGENT":8,"TEXCOORD_0":10,"TEXCOORD_1":11},"indices":13,"material":1,"mode":4,"extras":{"ASOBO_primitive":{"PrimitiveCount":2,"VertexType":"VTX","VertexVersion":2}}}],"name":"part009.001"},{"primitives":[{"attributes":{"COLOR_0":19,"NORMAL":16,"POSITION":14,"TANGENT":15,"TEXCOORD_0":17,"TEXCOORD_1":18},"indices":20,"material":2,"mode":4,"extras":{"ASOBO_primitive":{"PrimitiveCount":19,"VertexType":"VTX","VertexVersion":2}}}],"name":"part010.001"},{"primitives":[{"attributes":{"COLOR_0":26,"NORMAL":23,"POSITION":21,"TANGENT":22,"TEXCOORD_0":24,"TEXCOORD_1":25},"indices":27,"material":3,"mode":4,"extras":{"ASOBO_primitive":{"PrimitiveCount":664,"VertexType":"VTX","VertexVersion":2}}}],"name":"part001.001"},{"primitives":[{"attributes":{"COLOR_0":33,"NORMAL":30,"POSITION":28,"TANGENT":29,"TEXCOORD_0":31,"TEXCOORD_1":32},"indices":34,"material":4,"mode":4,"extras":{"ASOBO_primitive":{"PrimitiveCount":226,"VertexType":"VTX","VertexVersion":2}}}],"name":"part002.001"},{"primitives":[{"attributes":{"COLOR_0":40,"NORMAL":37,"POSITION":35,"TANGENT":36,"TEXCOORD_0":38,"TEXCOORD_1":39},"indices":41,"material":5,"mode":4,"extras":{"ASOBO_primitive":{"PrimitiveCount":6,"VertexType":"VTX","VertexVersion":2}}}],"name":"part003.001"},{"primitives":[{"attributes":{"COLOR_0":47,"NORMAL":44,"POSITION":42,"TANGENT":43,"TEXCOORD_0":45,"TEXCOORD_1":46},"indices":48,"material":6,"mode":4,"extras":{"ASOBO_primitive":{"PrimitiveCount":165,"VertexType":"VTX","VertexVersion":2}}}],"name":"part004.001"},{"primitives":[{"attributes":{"COLOR_0":54,"NORMAL":51,"POSITION":49,"TANGENT":50,"TEXCOORD_0":52,"TEXCOORD_1":53},"indices":55,"material":7,"mode":4,"extras":{"ASOBO_primitive":{"PrimitiveCount":188,"VertexType":"VTX","VertexVersion":2}}}],"name":"part005.001"},{"primitives":[{"attributes":{"COLOR_0":61,"NORMAL":58,"POSITION":56,"TANGENT":57,"TEXCOORD_0":59,"TEXCOORD_1":60},"indices":62,"material":8,"mode":4,"extras":{"ASOBO_primitive":{"PrimitiveCount":245,"VertexType":"VTX","VertexVersion":2}}}],"name":"part006.001"},{"primitives":[{"attributes":{"COLOR_0":68,"NORMAL":65,"POSITION":63,"TANGENT":64,"TEXCOORD_0":66,"TEXCOORD_1":67},"indices":69,"material":9,"mode":4,"extras":{"ASOBO_primitive":{"PrimitiveCount":4,"VertexType":"VTX","VertexVersion":2}}}],"name":"part007.001"},{"primitives":[{"attributes":{"COLOR_0":75,"NORMAL":72,"POSITION":70,"TANGENT":71,"TEXCOORD_0":73,"TEXCOORD_1":74},"indices":76,"material":10,"mode":4,"extras":{"ASOBO_primitive":{"PrimitiveCount":26,"VertexType":"VTX","VertexVersion":2}}}],"name":"part008.001"}],"nodes":[{"mesh":0,"name":"node1"},{"mesh":1,"name":"node10"},{"mesh":2,"name":"node11"},{"mesh":3,"name":"node2"},{"mesh":4,"name":"node3"},{"mesh":5,"name":"node4"},{"mesh":6,"name":"node5"},{"mesh":7,"name":"node6"},{"mesh":8,"name":"node7"},{"mesh":9,"name":"node8"},{"mesh":10,"name":"node9"},{"translation":[6.188989162445068,0.0,0.0],"name":"node0","children":[0,1,2,3,4,5,6,7,8,9,10]}],"scene":0,"scenes":[{"nodes":[11],"name":"Scene"}],"textures":[{"extensions":{"MSFT_texture_dds":{"source":0}}},{"extensions":{"MSFT_texture_dds":{"source":1}}},{"extensions":{"MSFT_texture_dds":{"source":2}}},{"extensions":{"MSFT_texture_dds":{"source":1}}},{"extensions":{"MSFT_texture_dds":{"source":2}}},{"extensions":{"MSFT_texture_dds":{"source":3}}},{"extensions":{"MSFT_texture_dds":{"source":4}}},{"extensions":{"MSFT_texture_dds":{"source":5}}},{"extensions":{"MSFT_texture_dds":{"source":6}}},{"extensions":{"MSFT_texture_dds":{"source":7}}},{"extensions":{"MSFT_texture_dds":{"source":1}}}],"extensionsUsed":["ASOBO_normal_map_convention","MSFT_texture_dds","ASOBO_asset_optimized"],"buffers":[{"byteLength":181032,"uri":"camion.bin"}],"images":[{"uri":"FRONT38TBOD_PNG.PNG.DDS","name":"FRONT38TBOD.PNG","extras":"ASOBO_image_converted_meta"},{"uri":"METALBLACK38T_PNG.PNG.DDS","name":"METALBLACK38T.PNG","extras":"ASOBO_image_converted_meta"},{"uri":"PNEU38T_PNG.PNG.DDS","name":"PNEU38T.PNG","extras":"ASOBO_image_converted_meta"},{"uri":"ARR38TBOD_PNG.PNG.DDS","name":"ARR38TBOD.PNG","extras":"ASOBO_image_converted_meta"},{"uri":"SIDE338TBOD_PNG.PNG.DDS","name":"SIDE338TBOD.PNG","extras":"ASOBO_image_converted_meta"},{"uri":"SIDE138TBOD_PNG.PNG.DDS","name":"SIDE138TBOD.PNG","extras":"ASOBO_image_converted_meta"},{"uri":"SIDE238TBOD_PNG.PNG.DDS","name":"SIDE238TBOD.PNG","extras":"ASOBO_image_converted_meta"},{"uri":"TNT38T1BOD_PNG.PNG.DDS","name":"TNT38T1BOD.PNG","extras":"ASOBO_image_converted_meta"}]}
