{"accessors":[{"bufferView":0,"componentType":5126,"count":24,"min":[-0.00221826508641243,-0.0014116913080215455,-0.002218260895460844],"max":[0.00221826508641243,0.0014116913080215455,0.002218260895460844],"type":"VEC3","name":"Cube.001_vertices#0_POSITION"},{"bufferView":0,"byteOffset":12,"componentType":5120,"count":24,"type":"VEC4","name":"Cube.001_vertices#0_TANGENT"},{"bufferView":0,"byteOffset":16,"componentType":5120,"count":24,"type":"VEC4","name":"Cube.001_vertices#0_NORMAL"},{"bufferView":0,"byteOffset":20,"componentType":5122,"count":24,"type":"VEC2","name":"Cube.001_vertices#0_TEXCOORD_0"},{"bufferView":0,"byteOffset":24,"componentType":5122,"count":24,"type":"VEC2","name":"Cube.001_vertices#0_TEXCOORD_1"},{"bufferView":0,"byteOffset":28,"componentType":5123,"count":24,"type":"VEC4","name":"Cube.001_vertices#0_COLOR_0"},{"bufferView":1,"componentType":5123,"count":36,"type":"SCALAR","name":"Cube.001_indices#0"}],"asset":{"generator":"Extended Khronos glTF Blender I/O v1.0.0","version":"2.0","extensions":{"ASOBO_asset_optimized":{"BoundingBoxMax":[0.00221826508641243,0.0014116913080215455,0.002218260895460844],"BoundingBoxMin":[-0.00221826508641243,-0.0014116913080215455,-0.002218260895460844],"MajorVersion":4,"MinorVersion":3,"UseCheckerboardMaterialForMissingTextures":true},"ASOBO_normal_map_convention":{"tangent_space_convention":"DirectX"}}},"bufferViews":[{"buffer":0,"byteLength":864,"byteStride":36,"target":34962,"name":"BufferViewVertexND"},{"buffer":0,"byteLength":72,"byteOffset":864,"target":34963,"name":"BufferViewIndex"}],"materials":[{"name":"glTFValidator_Added_Default_Material"}],"meshes":[{"primitives":[{"attributes":{"COLOR_0":5,"NORMAL":2,"POSITION":0,"TANGENT":1,"TEXCOORD_0":3,"TEXCOORD_1":4},"indices":6,"material":0,"mode":4,"extras":{"ASOBO_primitive":{"PrimitiveCount":12,"VertexType":"VTX","VertexVersion":2}}}],"name":"Cube.001"}],"nodes":[{"translation":[-0.00005015917122364044,0.0002741832286119461,0.0],"rotation":[0.5232754945755005,0.34203392267227175,-0.7269423604011536,0.28416627645492556],"extensions":{"ASOBO_macro_light":{"color":[1,1,1],"cone_angle":360,"day_night_cycle":false,"flash_duration":0,"flash_frequency":0,"flash_phase":0,"has_simmetry":false,"intensity":200,"rotation_speed":0}},"name":"Light"},{"translation":[7.358891487121582,4.958309173583984,6.925790786743164],"rotation":[0.483536034822464,0.33687159419059756,-0.20870360732078553,0.7804827094078064],"name":"Camera"},{"translation":[0.00011091679334640504,-0.0014116913080215455,0.0],"rotation":[-1.0,0.0,0.0,-4.3711388286737938e-8],"mesh":0,"name":"Cube"}],"scene":0,"scenes":[{"nodes":[0,1,2],"name":"Scene"}],"extensionsUsed":["ASOBO_normal_map_convention","ASOBO_macro_light","ASOBO_asset_optimized"],"buffers":[{"byteLength":936,"uri":"lumiere.bin"}]}
