{
    "asset" : {
        "extensions" : {
            "ASOBO_normal_map_convention" : {
                "tangent_space_convention" : "DirectX"
            }
        },
        "generator" : "Extended Khronos glTF Blender I/O v1.0.0",
        "version" : "2.0"
    },
    "extensionsUsed" : [
        "ASOBO_normal_map_convention",
        "ASOBO_material_day_night_switch",
        "ASOBO_material_shadow_options"
    ],
    "scene" : 0,
    "scenes" : [
        {
            "name" : "Scene",
            "nodes" : [
                0
            ]
        }
    ],
    "nodes" : [
        {
            "mesh" : 0,
            "name" : "sitePlan3",
            "rotation" : [
                -0.0036087457556277514,
                0,
                0,
                0.9999935030937195
            ]
        }
    ],
    "materials" : [
        {
            "emissiveFactor" : [
                0,
                0,
                0
            ],
            "extensions" : {
                "ASOBO_material_day_night_switch" : {
                    "enabled" : true
                }
            },
            "name" : "Alumin.001",
            "pbrMetallicRoughness" : {
                "baseColorTexture" : {
                    "index" : 0,
                    "texCoord" : 0
                },
                "metallicFactor" : 0,
                "roughnessFactor" : 0.5
            }
        },
        {
            "emissiveFactor" : [
                0,
                0,
                0
            ],
            "extensions" : {
                "ASOBO_material_day_night_switch" : {
                    "enabled" : true
                }
            },
            "name" : "Concrete.001",
            "pbrMetallicRoughness" : {
                "baseColorTexture" : {
                    "index" : 1,
                    "texCoord" : 0
                },
                "metallicFactor" : 0,
                "roughnessFactor" : 0.5
            }
        },
        {
            "emissiveFactor" : [
                0,
                0,
                0
            ],
            "extensions" : {
                "ASOBO_material_day_night_switch" : {
                    "enabled" : true
                }
            },
            "name" : "VertSigns",
            "pbrMetallicRoughness" : {
                "baseColorTexture" : {
                    "index" : 2,
                    "texCoord" : 0
                },
                "metallicFactor" : 0,
                "roughnessFactor" : 0.5
            }
        },
        {
            "emissiveFactor" : [
                0,
                0,
                0
            ],
            "extensions" : {
                "ASOBO_material_day_night_switch" : {
                    "enabled" : true
                },
                "ASOBO_material_shadow_options" : {
                    "noCastShadow" : true
                }
            },
            "name" : "Top.001",
            "pbrMetallicRoughness" : {
                "baseColorFactor" : [
                    0,
                    0,
                    0,
                    1
                ],
                "metallicFactor" : 0,
                "roughnessFactor" : 0.5
            }
        }
    ],
    "meshes" : [
        {
            "name" : "sitePlan3",
            "primitives" : [
                {
                    "attributes" : {
                        "POSITION" : 0,
                        "NORMAL" : 1,
                        "TEXCOORD_0" : 2
                    },
                    "indices" : 3,
                    "material" : 0
                },
                {
                    "attributes" : {
                        "POSITION" : 4,
                        "NORMAL" : 5,
                        "TEXCOORD_0" : 6
                    },
                    "indices" : 7,
                    "material" : 1
                },
                {
                    "attributes" : {
                        "POSITION" : 8,
                        "NORMAL" : 9,
                        "TEXCOORD_0" : 10
                    },
                    "indices" : 11,
                    "material" : 2
                },
                {
                    "attributes" : {
                        "POSITION" : 12,
                        "NORMAL" : 13,
                        "TEXCOORD_0" : 14
                    },
                    "indices" : 15,
                    "material" : 3
                }
            ]
        }
    ],
    "textures" : [
        {
            "source" : 0
        },
        {
            "source" : 1
        },
        {
            "source" : 2
        }
    ],
    "images" : [
        {
            "mimeType" : "image/png",
            "name" : "metalpublicite.PNG",
            "uri" : "metalpublicite_PNG.png"
        },
        {
            "mimeType" : "image/png",
            "name" : "ciment.PNG",
            "uri" : "ciment_PNG.png"
        },
        {
            "mimeType" : "image/png",
            "name" : "publicite",
            "uri" : "publicite.png"
        }
    ],
    "accessors" : [
        {
            "bufferView" : 0,
            "componentType" : 5126,
            "count" : 600,
            "max" : [
                0.2929399907588959,
                0.2197899967432022,
                0.19532999396324158
            ],
            "min" : [
                -0.2924099862575531,
                0.009639999829232693,
                -0.31711000204086304
            ],
            "type" : "VEC3"
        },
        {
            "bufferView" : 1,
            "componentType" : 5126,
            "count" : 600,
            "type" : "VEC3"
        },
        {
            "bufferView" : 2,
            "componentType" : 5126,
            "count" : 600,
            "type" : "VEC2"
        },
        {
            "bufferView" : 3,
            "componentType" : 5123,
            "count" : 3078,
            "type" : "SCALAR"
        },
        {
            "bufferView" : 4,
            "componentType" : 5126,
            "count" : 19,
            "max" : [
                0.35519999265670776,
                0.05333999916911125,
                0.20508000254631042
            ],
            "min" : [
                -0.35519999265670776,
                -0.011900000274181366,
                -0.4101499915122986
            ],
            "type" : "VEC3"
        },
        {
            "bufferView" : 5,
            "componentType" : 5126,
            "count" : 19,
            "type" : "VEC3"
        },
        {
            "bufferView" : 6,
            "componentType" : 5126,
            "count" : 19,
            "type" : "VEC2"
        },
        {
            "bufferView" : 7,
            "componentType" : 5123,
            "count" : 21,
            "type" : "SCALAR"
        },
        {
            "bufferView" : 8,
            "componentType" : 5126,
            "count" : 16,
            "max" : [
                0.24400000274181366,
                3.541409969329834,
                0.14100000262260437
            ],
            "min" : [
                -0.24400000274181366,
                0.0514100007712841,
                -0.28200000524520874
            ],
            "type" : "VEC3"
        },
        {
            "bufferView" : 9,
            "componentType" : 5126,
            "count" : 16,
            "type" : "VEC3"
        },
        {
            "bufferView" : 10,
            "componentType" : 5126,
            "count" : 16,
            "type" : "VEC2"
        },
        {
            "bufferView" : 11,
            "componentType" : 5123,
            "count" : 18,
            "type" : "SCALAR"
        },
        {
            "bufferView" : 12,
            "componentType" : 5126,
            "count" : 3,
            "max" : [
                0.24400000274181366,
                3.541409969329834,
                0.14100000262260437
            ],
            "min" : [
                -0.24400000274181366,
                3.541409969329834,
                -0.28200000524520874
            ],
            "type" : "VEC3"
        },
        {
            "bufferView" : 13,
            "componentType" : 5126,
            "count" : 3,
            "type" : "VEC3"
        },
        {
            "bufferView" : 14,
            "componentType" : 5126,
            "count" : 3,
            "type" : "VEC2"
        },
        {
            "bufferView" : 15,
            "componentType" : 5123,
            "count" : 3,
            "type" : "SCALAR"
        }
    ],
    "bufferViews" : [
        {
            "buffer" : 0,
            "byteLength" : 7200,
            "byteOffset" : 0
        },
        {
            "buffer" : 0,
            "byteLength" : 7200,
            "byteOffset" : 7200
        },
        {
            "buffer" : 0,
            "byteLength" : 4800,
            "byteOffset" : 14400
        },
        {
            "buffer" : 0,
            "byteLength" : 6156,
            "byteOffset" : 19200
        },
        {
            "buffer" : 0,
            "byteLength" : 228,
            "byteOffset" : 25356
        },
        {
            "buffer" : 0,
            "byteLength" : 228,
            "byteOffset" : 25584
        },
        {
            "buffer" : 0,
            "byteLength" : 152,
            "byteOffset" : 25812
        },
        {
            "buffer" : 0,
            "byteLength" : 42,
            "byteOffset" : 25964
        },
        {
            "buffer" : 0,
            "byteLength" : 192,
            "byteOffset" : 26008
        },
        {
            "buffer" : 0,
            "byteLength" : 192,
            "byteOffset" : 26200
        },
        {
            "buffer" : 0,
            "byteLength" : 128,
            "byteOffset" : 26392
        },
        {
            "buffer" : 0,
            "byteLength" : 36,
            "byteOffset" : 26520
        },
        {
            "buffer" : 0,
            "byteLength" : 36,
            "byteOffset" : 26556
        },
        {
            "buffer" : 0,
            "byteLength" : 36,
            "byteOffset" : 26592
        },
        {
            "buffer" : 0,
            "byteLength" : 24,
            "byteOffset" : 26628
        },
        {
            "buffer" : 0,
            "byteLength" : 6,
            "byteOffset" : 26652
        }
    ],
    "buffers" : [
        {
            "byteLength" : 26660,
            "uri" : "panneau.bin"
        }
    ]
}
