{"accessors":[{"bufferView":0,"componentType":5126,"count":2264,"min":[-3.7890002727508547,-0.029999999329447748,-0.6910000443458557],"max":[3.827000617980957,0.029999999329447748,0.009000000543892384],"type":"VEC3","name":"Text_vertices#0_POSITION"},{"bufferView":0,"byteOffset":12,"componentType":5120,"count":2264,"type":"VEC4","name":"Text_vertices#0_TANGENT"},{"bufferView":0,"byteOffset":16,"componentType":5120,"count":2264,"type":"VEC4","name":"Text_vertices#0_NORMAL"},{"bufferView":0,"byteOffset":20,"componentType":5122,"count":2264,"type":"VEC2","name":"Text_vertices#0_TEXCOORD_0"},{"bufferView":0,"byteOffset":24,"componentType":5122,"count":2264,"type":"VEC2","name":"Text_vertices#0_TEXCOORD_1"},{"bufferView":0,"byteOffset":28,"componentType":5123,"count":2264,"type":"VEC4","name":"Text_vertices#0_COLOR_0"},{"bufferView":1,"componentType":5123,"count":5424,"type":"SCALAR","name":"Text_indices#0"}],"asset":{"generator":"Extended Khronos glTF Blender I/O v1.0.0","version":"2.0","extensions":{"ASOBO_asset_optimized":{"BoundingBoxMax":[3.827000617980957,0.029999999329447748,0.009000000543892384],"BoundingBoxMin":[-3.7890002727508547,-0.029999999329447748,-0.6910000443458557],"MajorVersion":4,"MinorVersion":3,"UseCheckerboardMaterialForMissingTextures":true},"ASOBO_normal_map_convention":{"tangent_space_convention":"DirectX"}}},"bufferViews":[{"buffer":0,"byteLength":81504,"byteStride":36,"target":34962,"name":"BufferViewVertexND"},{"buffer":0,"byteLength":10848,"byteOffset":81504,"target":34963,"name":"BufferViewIndex"}],"extensionsRequired":["MSFT_texture_dds"],"materials":[{"name":"Material.001","normalTexture":{"index":0},"occlusionTexture":{"index":1},"pbrMetallicRoughness":{"baseColorTexture":{"index":2},"metallicRoughnessTexture":{"index":1}},"extensions":{"ASOBO_material_day_night_switch":{}}}],"meshes":[{"primitives":[{"attributes":{"COLOR_0":5,"NORMAL":2,"POSITION":0,"TANGENT":1,"TEXCOORD_0":3,"TEXCOORD_1":4},"indices":6,"material":0,"mode":4,"extras":{"ASOBO_primitive":{"PrimitiveCount":1808,"VertexType":"VTX","VertexVersion":2}}}],"name":"Text"}],"nodes":[{"translation":[-1.0,0.0,0.0],"mesh":0,"name":"Text"}],"scene":0,"scenes":[{"nodes":[0],"name":"Scene"}],"textures":[{"extensions":{"MSFT_texture_dds":{"source":0}}},{"extensions":{"MSFT_texture_dds":{"source":1}}},{"extensions":{"MSFT_texture_dds":{"source":2}}}],"extensionsUsed":["ASOBO_normal_map_convention","ASOBO_material_day_night_switch","MSFT_texture_dds","ASOBO_asset_optimized"],"buffers":[{"byteLength":92352,"uri":"cdv.bin"}],"images":[{"uri":"METAL034_2K_NORMALDX.PNG.DDS","name":"Metal034_2K_NormalDX","extras":"ASOBO_image_converted_meta"},{"uri":"METAL034_2K_ROUGHNESS.PNG.DDS","name":"Metal034_2K_Roughness","extras":"ASOBO_image_converted_meta"},{"uri":"METAL034_2K_COLOR.PNG.DDS","name":"Metal034_2K_Color","extras":"ASOBO_image_converted_meta"}]}
