{"accessors":[{"bufferView":0,"componentType":5126,"count":2500,"min":[0.0,0.0,0.0],"max":[88.22908782958985,88.40352630615235,14.173230171203614],"type":"VEC3","name":"Material2_vertices#0_POSITION"},{"bufferView":0,"byteOffset":12,"componentType":5120,"count":2500,"type":"VEC4","name":"Material2_vertices#0_TANGENT"},{"bufferView":0,"byteOffset":16,"componentType":5120,"count":2500,"type":"VEC4","name":"Material2_vertices#0_NORMAL"},{"bufferView":0,"byteOffset":20,"componentType":5122,"count":2500,"type":"VEC2","name":"Material2_vertices#0_TEXCOORD_0"},{"bufferView":0,"byteOffset":24,"componentType":5122,"count":2500,"type":"VEC2","name":"Material2_vertices#0_TEXCOORD_1"},{"bufferView":0,"byteOffset":28,"componentType":5123,"count":2500,"type":"VEC4","name":"Material2_vertices#0_COLOR_0"},{"bufferView":1,"componentType":5123,"count":14844,"type":"SCALAR","name":"Material2_indices#0"},{"bufferView":0,"byteOffset":90000,"componentType":5126,"count":50,"min":[0.5893859267234802,0.5905511975288391,0.0],"max":[69.84551239013672,69.98359680175781,0.0],"type":"VEC3","name":"Material2.009_vertices#0_POSITION"},{"bufferView":0,"byteOffset":90012,"componentType":5120,"count":50,"type":"VEC4","name":"Material2.009_vertices#0_TANGENT"},{"bufferView":0,"byteOffset":90016,"componentType":5120,"count":50,"type":"VEC4","name":"Material2.009_vertices#0_NORMAL"},{"bufferView":0,"byteOffset":90020,"componentType":5122,"count":50,"type":"VEC2","name":"Material2.009_vertices#0_TEXCOORD_0"},{"bufferView":0,"byteOffset":90024,"componentType":5122,"count":50,"type":"VEC2","name":"Material2.009_vertices#0_TEXCOORD_1"},{"bufferView":0,"byteOffset":90028,"componentType":5123,"count":50,"type":"VEC4","name":"Material2.009_vertices#0_COLOR_0"},{"bufferView":1,"byteOffset":29688,"componentType":5123,"count":144,"type":"SCALAR","name":"Material2.009_indices#0"},{"bufferView":0,"byteOffset":91800,"componentType":5126,"count":200,"min":[0.5893859267234802,0.5905511975288391,0.0],"max":[69.84551239013672,69.98359680175781,10.236220359802246],"type":"VEC3","name":"Material2.010_vertices#0_POSITION"},{"bufferView":0,"byteOffset":91812,"componentType":5120,"count":200,"type":"VEC4","name":"Material2.010_vertices#0_TANGENT"},{"bufferView":0,"byteOffset":91816,"componentType":5120,"count":200,"type":"VEC4","name":"Material2.010_vertices#0_NORMAL"},{"bufferView":0,"byteOffset":91820,"componentType":5122,"count":200,"type":"VEC2","name":"Material2.010_vertices#0_TEXCOORD_0"},{"bufferView":0,"byteOffset":91824,"componentType":5122,"count":200,"type":"VEC2","name":"Material2.010_vertices#0_TEXCOORD_1"},{"bufferView":0,"byteOffset":91828,"componentType":5123,"count":200,"type":"VEC4","name":"Material2.010_vertices#0_COLOR_0"},{"bufferView":1,"byteOffset":29976,"componentType":5123,"count":600,"type":"SCALAR","name":"Material2.010_indices#0"},{"bufferView":0,"byteOffset":99000,"componentType":5126,"count":210,"min":[0.0,0.0,10.236220359802246],"max":[70.43489074707031,70.57415771484375,10.236220359802246],"type":"VEC3","name":"Material2.011_vertices#0_POSITION"},{"bufferView":0,"byteOffset":99012,"componentType":5120,"count":210,"type":"VEC4","name":"Material2.011_vertices#0_TANGENT"},{"bufferView":0,"byteOffset":99016,"componentType":5120,"count":210,"type":"VEC4","name":"Material2.011_vertices#0_NORMAL"},{"bufferView":0,"byteOffset":99020,"componentType":5122,"count":210,"type":"VEC2","name":"Material2.011_vertices#0_TEXCOORD_0"},{"bufferView":0,"byteOffset":99024,"componentType":5122,"count":210,"type":"VEC2","name":"Material2.011_vertices#0_TEXCOORD_1"},{"bufferView":0,"byteOffset":99028,"componentType":5123,"count":210,"type":"VEC4","name":"Material2.011_vertices#0_COLOR_0"},{"bufferView":1,"byteOffset":31176,"componentType":5123,"count":600,"type":"SCALAR","name":"Material2.011_indices#0"},{"bufferView":0,"byteOffset":106560,"componentType":5126,"count":138,"min":[15.060250282287598,1.1716049909591675,0.0],"max":[16.437299728393556,2.7654030323028566,0.7874016165733337],"type":"VEC3","name":"Material2.003_vertices#0_POSITION"},{"bufferView":0,"byteOffset":106572,"componentType":5120,"count":138,"type":"VEC4","name":"Material2.003_vertices#0_TANGENT"},{"bufferView":0,"byteOffset":106576,"componentType":5120,"count":138,"type":"VEC4","name":"Material2.003_vertices#0_NORMAL"},{"bufferView":0,"byteOffset":106580,"componentType":5122,"count":138,"type":"VEC2","name":"Material2.003_vertices#0_TEXCOORD_0"},{"bufferView":0,"byteOffset":106584,"componentType":5122,"count":138,"type":"VEC2","name":"Material2.003_vertices#0_TEXCOORD_1"},{"bufferView":0,"byteOffset":106588,"componentType":5123,"count":138,"type":"VEC4","name":"Material2.003_vertices#0_COLOR_0"},{"bufferView":1,"byteOffset":32376,"componentType":5123,"count":336,"type":"SCALAR","name":"Material2.003_indices#0"},{"bufferView":0,"byteOffset":111528,"componentType":5126,"count":505,"min":[15.183340072631836,0.269226998090744,1.1811020374298096],"max":[31.242460250854493,3.667781114578247,1.7716540098190308],"type":"VEC3","name":"Material2.004_vertices#0_POSITION"},{"bufferView":0,"byteOffset":111540,"componentType":5120,"count":505,"type":"VEC4","name":"Material2.004_vertices#0_TANGENT"},{"bufferView":0,"byteOffset":111544,"componentType":5120,"count":505,"type":"VEC4","name":"Material2.004_vertices#0_NORMAL"},{"bufferView":0,"byteOffset":111548,"componentType":5122,"count":505,"type":"VEC2","name":"Material2.004_vertices#0_TEXCOORD_0"},{"bufferView":0,"byteOffset":111552,"componentType":5122,"count":505,"type":"VEC2","name":"Material2.004_vertices#0_TEXCOORD_1"},{"bufferView":0,"byteOffset":111556,"componentType":5123,"count":505,"type":"VEC4","name":"Material2.004_vertices#0_COLOR_0"},{"bufferView":1,"byteOffset":33048,"componentType":5123,"count":1053,"type":"SCALAR","name":"Material2.004_indices#0"},{"bufferView":0,"byteOffset":129708,"componentType":5126,"count":83,"min":[0.778794527053833,0.8132101893424988,1.377953052520752],"max":[2.6059799194335939,3.12379789352417,1.5748029947280884],"type":"VEC3","name":"Material2.005_vertices#0_POSITION"},{"bufferView":0,"byteOffset":129720,"componentType":5120,"count":83,"type":"VEC4","name":"Material2.005_vertices#0_TANGENT"},{"bufferView":0,"byteOffset":129724,"componentType":5120,"count":83,"type":"VEC4","name":"Material2.005_vertices#0_NORMAL"},{"bufferView":0,"byteOffset":129728,"componentType":5122,"count":83,"type":"VEC2","name":"Material2.005_vertices#0_TEXCOORD_0"},{"bufferView":0,"byteOffset":129732,"componentType":5122,"count":83,"type":"VEC2","name":"Material2.005_vertices#0_TEXCOORD_1"},{"bufferView":0,"byteOffset":129736,"componentType":5123,"count":83,"type":"VEC4","name":"Material2.005_vertices#0_COLOR_0"},{"bufferView":1,"byteOffset":35154,"componentType":5123,"count":189,"type":"SCALAR","name":"Material2.005_indices#0"},{"bufferView":0,"byteOffset":132696,"componentType":5126,"count":1395,"min":[0.0,0.0,0.7874016165733337],"max":[31.49605941772461,3.9370079040527345,1.1811020374298096],"type":"VEC3","name":"Material2.006_vertices#0_POSITION"},{"bufferView":0,"byteOffset":132708,"componentType":5120,"count":1395,"type":"VEC4","name":"Material2.006_vertices#0_TANGENT"},{"bufferView":0,"byteOffset":132712,"componentType":5120,"count":1395,"type":"VEC4","name":"Material2.006_vertices#0_NORMAL"},{"bufferView":0,"byteOffset":132716,"componentType":5122,"count":1395,"type":"VEC2","name":"Material2.006_vertices#0_TEXCOORD_0"},{"bufferView":0,"byteOffset":132720,"componentType":5122,"count":1395,"type":"VEC2","name":"Material2.006_vertices#0_TEXCOORD_1"},{"bufferView":0,"byteOffset":132724,"componentType":5123,"count":1395,"type":"VEC4","name":"Material2.006_vertices#0_COLOR_0"},{"bufferView":1,"byteOffset":35532,"componentType":5123,"count":2205,"type":"SCALAR","name":"Material2.006_indices#0"},{"bufferView":0,"byteOffset":182916,"componentType":5126,"count":372,"min":[0.2535991966724396,0.269226998090744,1.1811020374298096],"max":[15.773530006408692,3.667781114578247,1.377953052520752],"type":"VEC3","name":"Material2.007_vertices#0_POSITION"},{"bufferView":0,"byteOffset":182928,"componentType":5120,"count":372,"type":"VEC4","name":"Material2.007_vertices#0_TANGENT"},{"bufferView":0,"byteOffset":182932,"componentType":5120,"count":372,"type":"VEC4","name":"Material2.007_vertices#0_NORMAL"},{"bufferView":0,"byteOffset":182936,"componentType":5122,"count":372,"type":"VEC2","name":"Material2.007_vertices#0_TEXCOORD_0"},{"bufferView":0,"byteOffset":182940,"componentType":5122,"count":372,"type":"VEC2","name":"Material2.007_vertices#0_TEXCOORD_1"},{"bufferView":0,"byteOffset":182944,"componentType":5123,"count":372,"type":"VEC4","name":"Material2.007_vertices#0_COLOR_0"},{"bufferView":1,"byteOffset":39942,"componentType":5123,"count":666,"type":"SCALAR","name":"Material2.007_indices#0"},{"bufferView":0,"byteOffset":196308,"componentType":5126,"count":1350,"min":[0.0,0.0,0.0],"max":[9.28879165649414,9.3021240234375,0.8062798976898193],"type":"VEC3","name":"Material2.013_vertices#0_POSITION"},{"bufferView":0,"byteOffset":196320,"componentType":5120,"count":1350,"type":"VEC4","name":"Material2.013_vertices#0_TANGENT"},{"bufferView":0,"byteOffset":196324,"componentType":5120,"count":1350,"type":"VEC4","name":"Material2.013_vertices#0_NORMAL"},{"bufferView":0,"byteOffset":196328,"componentType":5122,"count":1350,"type":"VEC2","name":"Material2.013_vertices#0_TEXCOORD_0"},{"bufferView":0,"byteOffset":196332,"componentType":5122,"count":1350,"type":"VEC2","name":"Material2.013_vertices#0_TEXCOORD_1"},{"bufferView":0,"byteOffset":196336,"componentType":5123,"count":1350,"type":"VEC4","name":"Material2.013_vertices#0_COLOR_0"},{"bufferView":1,"byteOffset":41274,"componentType":5123,"count":7800,"type":"SCALAR","name":"Material2.013_indices#0"},{"bufferView":0,"byteOffset":244908,"componentType":5126,"count":1250,"min":[0.27045169472694399,0.2708398997783661,0.0],"max":[9.018340110778809,9.03128433227539,0.8062798976898193],"type":"VEC3","name":"Material2.014_vertices#0_POSITION"},{"bufferView":0,"byteOffset":244920,"componentType":5120,"count":1250,"type":"VEC4","name":"Material2.014_vertices#0_TANGENT"},{"bufferView":0,"byteOffset":244924,"componentType":5120,"count":1250,"type":"VEC4","name":"Material2.014_vertices#0_NORMAL"},{"bufferView":0,"byteOffset":244928,"componentType":5122,"count":1250,"type":"VEC2","name":"Material2.014_vertices#0_TEXCOORD_0"},{"bufferView":0,"byteOffset":244932,"componentType":5122,"count":1250,"type":"VEC2","name":"Material2.014_vertices#0_TEXCOORD_1"},{"bufferView":0,"byteOffset":244936,"componentType":5123,"count":1250,"type":"VEC4","name":"Material2.014_vertices#0_COLOR_0"},{"bufferView":1,"byteOffset":56874,"componentType":5123,"count":7200,"type":"SCALAR","name":"Material2.014_indices#0"},{"bufferView":0,"byteOffset":289908,"componentType":5126,"count":348,"min":[0.0,0.0,0.0],"max":[4.898268222808838,10.898209571838379,7.37941312789917],"type":"VEC3","name":"Material2.001_vertices#0_POSITION"},{"bufferView":0,"byteOffset":289920,"componentType":5120,"count":348,"type":"VEC4","name":"Material2.001_vertices#0_TANGENT"},{"bufferView":0,"byteOffset":289924,"componentType":5120,"count":348,"type":"VEC4","name":"Material2.001_vertices#0_NORMAL"},{"bufferView":0,"byteOffset":289928,"componentType":5122,"count":348,"type":"VEC2","name":"Material2.001_vertices#0_TEXCOORD_0"},{"bufferView":0,"byteOffset":289932,"componentType":5122,"count":348,"type":"VEC2","name":"Material2.001_vertices#0_TEXCOORD_1"},{"bufferView":0,"byteOffset":289936,"componentType":5123,"count":348,"type":"VEC4","name":"Material2.001_vertices#0_COLOR_0"},{"bufferView":1,"byteOffset":71274,"componentType":5123,"count":1674,"type":"SCALAR","name":"Material2.001_indices#0"},{"bufferView":0,"byteOffset":302436,"componentType":5126,"count":100,"min":[2.220446049250313e-15,1.004546046257019,3.0202839374542238],"max":[4.898268222808838,2.5936520099639894,4.359978199005127],"type":"VEC3","name":"Material2.002_vertices#0_POSITION"},{"bufferView":0,"byteOffset":302448,"componentType":5120,"count":100,"type":"VEC4","name":"Material2.002_vertices#0_TANGENT"},{"bufferView":0,"byteOffset":302452,"componentType":5120,"count":100,"type":"VEC4","name":"Material2.002_vertices#0_NORMAL"},{"bufferView":0,"byteOffset":302456,"componentType":5122,"count":100,"type":"VEC2","name":"Material2.002_vertices#0_TEXCOORD_0"},{"bufferView":0,"byteOffset":302460,"componentType":5122,"count":100,"type":"VEC2","name":"Material2.002_vertices#0_TEXCOORD_1"},{"bufferView":0,"byteOffset":302464,"componentType":5123,"count":100,"type":"VEC4","name":"Material2.002_vertices#0_COLOR_0"},{"bufferView":1,"byteOffset":74622,"componentType":5123,"count":300,"type":"SCALAR","name":"Material2.002_indices#0"}],"asset":{"generator":"Extended Khronos glTF Blender I/O v1.0.0","version":"2.0","extensions":{"ASOBO_asset_optimized":{"BoundingBoxMax":[88.22908782958985,88.40352630615235,14.173230171203614],"BoundingBoxMin":[0.0,0.0,0.0],"MajorVersion":4,"MinorVersion":3,"UseCheckerboardMaterialForMissingTextures":true},"ASOBO_normal_map_convention":{"tangent_space_convention":"DirectX"}}},"bufferViews":[{"buffer":0,"byteLength":306036,"byteStride":36,"target":34962,"name":"BufferViewVertexND"},{"buffer":0,"byteLength":75222,"byteOffset":306036,"target":34963,"name":"BufferViewIndex"}],"extensionsRequired":["MSFT_texture_dds"],"materials":[{"name":"Compass_Metal","normalTexture":{"index":0},"occlusionTexture":{"index":1},"pbrMetallicRoughness":{"baseColorTexture":{"index":2},"metallicRoughnessTexture":{"index":1}}},{"name":"Compass_Rose","pbrMetallicRoughness":{"metallicFactor":0.0,"roughnessFactor":0.5,"baseColorTexture":{"index":3}}},{"name":"Compass_Gold","pbrMetallicRoughness":{"baseColorFactor":[0.0,0.0,0.0,1.0],"metallicFactor":0.0,"roughnessFactor":0.5}}],"meshes":[{"primitives":[{"attributes":{"COLOR_0":5,"NORMAL":2,"POSITION":0,"TANGENT":1,"TEXCOORD_0":3,"TEXCOORD_1":4},"indices":6,"material":0,"mode":4,"extras":{"ASOBO_primitive":{"PrimitiveCount":4948,"VertexType":"VTX","VertexVersion":2}}}],"name":"Material2"},{"primitives":[{"attributes":{"COLOR_0":12,"NORMAL":9,"POSITION":7,"TANGENT":8,"TEXCOORD_0":10,"TEXCOORD_1":11},"indices":13,"material":1,"mode":4,"extras":{"ASOBO_primitive":{"PrimitiveCount":48,"VertexType":"VTX","VertexVersion":2}}}],"name":"Material2.009"},{"primitives":[{"attributes":{"COLOR_0":19,"NORMAL":16,"POSITION":14,"TANGENT":15,"TEXCOORD_0":17,"TEXCOORD_1":18},"indices":20,"material":0,"mode":4,"extras":{"ASOBO_primitive":{"PrimitiveCount":200,"VertexType":"VTX","VertexVersion":2}}}],"name":"Material2.010"},{"primitives":[{"attributes":{"COLOR_0":26,"NORMAL":23,"POSITION":21,"TANGENT":22,"TEXCOORD_0":24,"TEXCOORD_1":25},"indices":27,"material":0,"mode":4,"extras":{"ASOBO_primitive":{"PrimitiveCount":200,"VertexType":"VTX","VertexVersion":2}}}],"name":"Material2.011"},{"primitives":[{"attributes":{"COLOR_0":33,"NORMAL":30,"POSITION":28,"TANGENT":29,"TEXCOORD_0":31,"TEXCOORD_1":32},"indices":34,"material":0,"mode":4,"extras":{"ASOBO_primitive":{"PrimitiveCount":112,"VertexType":"VTX","VertexVersion":2}}}],"name":"Material2.003"},{"primitives":[{"attributes":{"COLOR_0":40,"NORMAL":37,"POSITION":35,"TANGENT":36,"TEXCOORD_0":38,"TEXCOORD_1":39},"indices":41,"material":0,"mode":4,"extras":{"ASOBO_primitive":{"PrimitiveCount":351,"VertexType":"VTX","VertexVersion":2}}}],"name":"Material2.004"},{"primitives":[{"attributes":{"COLOR_0":47,"NORMAL":44,"POSITION":42,"TANGENT":43,"TEXCOORD_0":45,"TEXCOORD_1":46},"indices":48,"material":0,"mode":4,"extras":{"ASOBO_primitive":{"PrimitiveCount":63,"VertexType":"VTX","VertexVersion":2}}}],"name":"Material2.005"},{"primitives":[{"attributes":{"COLOR_0":54,"NORMAL":51,"POSITION":49,"TANGENT":50,"TEXCOORD_0":52,"TEXCOORD_1":53},"indices":55,"material":0,"mode":4,"extras":{"ASOBO_primitive":{"PrimitiveCount":735,"VertexType":"VTX","VertexVersion":2}}}],"name":"Material2.006"},{"primitives":[{"attributes":{"COLOR_0":61,"NORMAL":58,"POSITION":56,"TANGENT":57,"TEXCOORD_0":59,"TEXCOORD_1":60},"indices":62,"material":2,"mode":4,"extras":{"ASOBO_primitive":{"PrimitiveCount":222,"VertexType":"VTX","VertexVersion":2}}}],"name":"Material2.007"},{"primitives":[{"attributes":{"COLOR_0":68,"NORMAL":65,"POSITION":63,"TANGENT":64,"TEXCOORD_0":66,"TEXCOORD_1":67},"indices":69,"material":0,"mode":4,"extras":{"ASOBO_primitive":{"PrimitiveCount":2600,"VertexType":"VTX","VertexVersion":2}}}],"name":"Material2.013"},{"primitives":[{"attributes":{"COLOR_0":75,"NORMAL":72,"POSITION":70,"TANGENT":71,"TEXCOORD_0":73,"TEXCOORD_1":74},"indices":76,"material":0,"mode":4,"extras":{"ASOBO_primitive":{"PrimitiveCount":2400,"VertexType":"VTX","VertexVersion":2}}}],"name":"Material2.014"},{"primitives":[{"attributes":{"COLOR_0":82,"NORMAL":79,"POSITION":77,"TANGENT":78,"TEXCOORD_0":80,"TEXCOORD_1":81},"indices":83,"material":0,"mode":4,"extras":{"ASOBO_primitive":{"PrimitiveCount":558,"VertexType":"VTX","VertexVersion":2}}}],"name":"Material2.001"},{"primitives":[{"attributes":{"COLOR_0":89,"NORMAL":86,"POSITION":84,"TANGENT":85,"TEXCOORD_0":87,"TEXCOORD_1":88},"indices":90,"material":0,"mode":4,"extras":{"ASOBO_primitive":{"PrimitiveCount":100,"VertexType":"VTX","VertexVersion":2}}}],"name":"Material2.002"}],"nodes":[{"mesh":0,"name":"Material2"},{"translation":[0.0,14.99927043914795,0.7208396792411804],"name":"Compass_Case","children":[0]},{"translation":[0.0,0.0,10.236220359802246],"name":"Compass_Glass"},{"mesh":1,"name":"Material2.009"},{"mesh":2,"name":"Material2.010"},{"mesh":3,"name":"Material2.011"},{"name":"Material3.008"},{"name":"Material3.009"},{"name":"Material3.010"},{"translation":[8.897096633911133,23.913959503173829,4.657847881317139],"name":"Compass_Face","children":[2,3,4,5,6,7,8]},{"mesh":4,"name":"Material2.003"},{"mesh":5,"name":"Material2.004"},{"mesh":6,"name":"Material2.005"},{"mesh":7,"name":"Material2.006"},{"mesh":8,"name":"Material2.007"},{"name":"Material2.008"},{"name":"Material3.003"},{"name":"Material3.004"},{"name":"Material3.005"},{"name":"Material3.006"},{"name":"Material3.007"},{"translation":[19.54762077331543,56.13016891479492,4.657847881317139],"scale":[1.559999942779541,1.559999942779541,1.0],"name":"Compass_Needle","children":[10,11,12,13,14,15,16,17,18,19,20]},{"mesh":9,"name":"Material2.013"},{"mesh":10,"name":"Material2.014"},{"translation":[37.05376052856445,0.06451012194156647,-1.1049879789352418],"rotation":[0.3799383342266083,0.0032675873953849079,-0.04563797637820244,0.9238795638084412],"scale":[1.423352599143982,1.423352837562561,1.4233521223068236],"name":"Compass_Ring","children":[22,23]},{"mesh":11,"name":"Material2.001"},{"mesh":12,"name":"Material2.002"},{"name":"Material3.001"},{"name":"Material3.002"},{"translation":[41.55012893676758,6.1654767990112309,4.115408897399902],"name":"Compass_Ring_Holder","children":[25,26,27,28]},{"translation":[-44.114540100097659,-59.2010383605957,-0.7208396792411804],"name":"instance_0","children":[1,9,21,24,29]},{"name":"SketchUp","children":[30]},{"name":"Collada visual scene group","children":[31]},{"name":"RootNode (model correction matrix)","children":[32]},{"rotation":[-0.7071067690849304,0.0,0.0,0.7071067690849304],"name":"RootNode (gltf orientation matrix)","children":[33]},{"translation":[7.358891487121582,4.958309173583984,6.925790786743164],"rotation":[0.483536034822464,0.33687159419059756,-0.20870360732078553,0.7804827094078064],"name":"Camera"}],"scene":0,"scenes":[{"nodes":[34,35],"name":"Scene"}],"textures":[{"extensions":{"MSFT_texture_dds":{"source":0}}},{"extensions":{"MSFT_texture_dds":{"source":1}}},{"extensions":{"MSFT_texture_dds":{"source":2}}},{"extensions":{"MSFT_texture_dds":{"source":3}}}],"extensionsUsed":["ASOBO_normal_map_convention","MSFT_texture_dds","ASOBO_asset_optimized"],"buffers":[{"byteLength":381258,"uri":"ludo72.bin"}],"images":[{"uri":"MARBLE012_2K_NORMALDX.PNG.DDS","name":"Marble012_2K_NormalDX","extras":"ASOBO_image_converted_meta"},{"uri":"METAL034_2K_ROUGHNESS.PNG.DDS","name":"Metal034_2K_Roughness","extras":"ASOBO_image_converted_meta"},{"uri":"METAL034_2K_COLOR.PNG.DDS","name":"Metal034_2K_Color","extras":"ASOBO_image_converted_meta"},{"uri":"COMPASS_ROSE_BASECOLOR.PNG.DDS","name":"Compass_Rose_baseColor","extras":"ASOBO_image_converted_meta"}]}
