{"accessors":[{"bufferView":0,"componentType":5126,"count":10066,"min":[-3.389500141143799,-0.05000000074505806,-0.6910000443458557],"max":[3.424499988555908,0.05000000074505806,1.2300000190734864],"type":"VEC3","name":"Text_vertices#0_POSITION"},{"bufferView":0,"byteOffset":12,"componentType":5120,"count":10066,"type":"VEC4","name":"Text_vertices#0_TANGENT"},{"bufferView":0,"byteOffset":16,"componentType":5120,"count":10066,"type":"VEC4","name":"Text_vertices#0_NORMAL"},{"bufferView":0,"byteOffset":20,"componentType":5122,"count":10066,"type":"VEC2","name":"Text_vertices#0_TEXCOORD_0"},{"bufferView":0,"byteOffset":24,"componentType":5122,"count":10066,"type":"VEC2","name":"Text_vertices#0_TEXCOORD_1"},{"bufferView":0,"byteOffset":28,"componentType":5123,"count":10066,"type":"VEC4","name":"Text_vertices#0_COLOR_0"},{"bufferView":1,"componentType":5123,"count":23916,"type":"SCALAR","name":"Text_indices#0"}],"asset":{"generator":"Extended Khronos glTF Blender I/O v1.0.0","version":"2.0","extensions":{"ASOBO_asset_optimized":{"BoundingBoxMax":[3.424499988555908,0.05000000074505806,1.2300000190734864],"BoundingBoxMin":[-3.389500141143799,-0.05000000074505806,-0.6910000443458557],"MajorVersion":4,"MinorVersion":3,"UseCheckerboardMaterialForMissingTextures":true},"ASOBO_normal_map_convention":{"tangent_space_convention":"DirectX"}}},"bufferViews":[{"buffer":0,"byteLength":362376,"byteStride":36,"target":34962,"name":"BufferViewVertexND"},{"buffer":0,"byteLength":47832,"byteOffset":362376,"target":34963,"name":"BufferViewIndex"}],"materials":[{"name":"Material.001","pbrMetallicRoughness":{"baseColorFactor":[1.0,0.29552412033081057,0.10568640381097794,1.0],"metallicFactor":0.0,"roughnessFactor":0.5},"extensions":{"ASOBO_material_day_night_switch":{}}}],"meshes":[{"primitives":[{"attributes":{"COLOR_0":5,"NORMAL":2,"POSITION":0,"TANGENT":1,"TEXCOORD_0":3,"TEXCOORD_1":4},"indices":6,"material":0,"mode":4,"extras":{"ASOBO_primitive":{"PrimitiveCount":7972,"VertexType":"VTX","VertexVersion":2}}}],"name":"Text"}],"nodes":[{"translation":[4.076245307922363,5.903861999511719,-1.0054539442062379],"rotation":[0.5232754945755005,0.34203392267227175,-0.7269423604011536,0.28416627645492556],"extensions":{"ASOBO_macro_light":{"color":[1,1,1],"cone_angle":360,"day_night_cycle":false,"flash_duration":0,"flash_frequency":0,"flash_phase":0,"has_simmetry":false,"intensity":1000,"rotation_speed":0}},"name":"Light"},{"translation":[7.358891487121582,4.958309173583984,6.925790786743164],"rotation":[0.483536034822464,0.33687159419059756,-0.20870360732078553,0.7804827094078064],"name":"Camera"},{"mesh":0,"name":"Text"}],"scene":0,"scenes":[{"nodes":[0,1,2],"name":"Scene"}],"extensionsUsed":["ASOBO_normal_map_convention","ASOBO_macro_light","ASOBO_material_day_night_switch","ASOBO_asset_optimized"],"buffers":[{"byteLength":410208,"uri":"colchix.bin"}]}
