{
    "asset" : {
        "extensions" : {
            "ASOBO_normal_map_convention" : {
                "tangent_space_convention" : "DirectX"
            }
        },
        "generator" : "Extended Khronos glTF Blender I/O v1.0.0",
        "version" : "2.0"
    },
    "extensionsUsed" : [
        "ASOBO_normal_map_convention"
    ],
    "scene" : 0,
    "scenes" : [
        {
            "name" : "Scene",
            "nodes" : [
                0,
                1,
                2,
                3
            ]
        }
    ],
    "nodes" : [
        {
            "mesh" : 0,
            "name" : "Mesh_Plane",
            "rotation" : [
                0.7071068286895752,
                0,
                0,
                0.7071067094802856
            ]
        },
        {
            "mesh" : 1,
            "name" : "Mesh.001_Cube.006",
            "rotation" : [
                0.6586101651191711,
                -0.2573571801185608,
                -0.257357120513916,
                0.6586100459098816
            ],
            "translation" : [
                -1.8118096590042114,
                2.272226572036743,
                0
            ]
        },
        {
            "mesh" : 2,
            "name" : "Mesh.002_Cube.008",
            "rotation" : [
                0.7071068286895752,
                0,
                0,
                0.7071067094802856
            ]
        },
        {
            "mesh" : 3,
            "name" : "Mesh.003_Cube.007",
            "rotation" : [
                0.7071068286895752,
                0,
                0,
                0.7071067094802856
            ]
        }
    ],
    "materials" : [
        {
            "emissiveFactor" : [
                0,
                0,
                0
            ],
            "name" : "GoldText",
            "pbrMetallicRoughness" : {
                "baseColorTexture" : {
                    "index" : 0,
                    "texCoord" : 0
                },
                "metallicFactor" : 0,
                "roughnessFactor" : 0.5
            }
        },
        {
            "doubleSided" : true,
            "emissiveFactor" : [
                0,
                0,
                0
            ],
            "name" : "ChestText",
            "pbrMetallicRoughness" : {
                "baseColorTexture" : {
                    "index" : 1,
                    "texCoord" : 0
                },
                "metallicFactor" : 0,
                "roughnessFactor" : 0.5
            }
        }
    ],
    "meshes" : [
        {
            "name" : "Mesh_Plane",
            "primitives" : [
                {
                    "attributes" : {
                        "POSITION" : 0,
                        "NORMAL" : 1,
                        "TEXCOORD_0" : 2
                    },
                    "indices" : 3,
                    "material" : 0
                }
            ]
        },
        {
            "name" : "Mesh.001_Cube.006",
            "primitives" : [
                {
                    "attributes" : {
                        "POSITION" : 4,
                        "NORMAL" : 5,
                        "TEXCOORD_0" : 6
                    },
                    "indices" : 7,
                    "material" : 1
                }
            ]
        },
        {
            "name" : "Mesh.002_Cube.008",
            "primitives" : [
                {
                    "attributes" : {
                        "POSITION" : 8,
                        "NORMAL" : 9,
                        "TEXCOORD_0" : 10
                    },
                    "indices" : 11,
                    "material" : 1
                }
            ]
        },
        {
            "name" : "Mesh.003_Cube.007",
            "primitives" : [
                {
                    "attributes" : {
                        "POSITION" : 12,
                        "NORMAL" : 13,
                        "TEXCOORD_0" : 14
                    },
                    "indices" : 15,
                    "material" : 1
                }
            ]
        }
    ],
    "textures" : [
        {
            "source" : 0
        },
        {
            "source" : 1
        }
    ],
    "images" : [
        {
            "mimeType" : "image/png",
            "name" : "gold",
            "uri" : "gold.png"
        },
        {
            "mimeType" : "image/png",
            "name" : "chest_rare",
            "uri" : "chest_rare.png"
        }
    ],
    "accessors" : [
        {
            "bufferView" : 0,
            "componentType" : 5126,
            "count" : 48,
            "max" : [
                1.9051719903945923,
                2.837459087371826,
                -2.898766040802002
            ],
            "min" : [
                -1.9039360284805298,
                -2.8432838916778564,
                -3.6375110149383545
            ],
            "type" : "VEC3"
        },
        {
            "bufferView" : 1,
            "componentType" : 5126,
            "count" : 48,
            "type" : "VEC3"
        },
        {
            "bufferView" : 2,
            "componentType" : 5126,
            "count" : 48,
            "type" : "VEC2"
        },
        {
            "bufferView" : 3,
            "componentType" : 5123,
            "count" : 210,
            "type" : "SCALAR"
        },
        {
            "bufferView" : 4,
            "componentType" : 5126,
            "count" : 548,
            "max" : [
                2.054702043533325,
                2.977632999420166,
                -2.5890920162200928
            ],
            "min" : [
                -2.4708259105682373,
                -2.977632999420166,
                -4.545982837677002
            ],
            "type" : "VEC3"
        },
        {
            "bufferView" : 5,
            "componentType" : 5126,
            "count" : 548,
            "type" : "VEC3"
        },
        {
            "bufferView" : 6,
            "componentType" : 5126,
            "count" : 548,
            "type" : "VEC2"
        },
        {
            "bufferView" : 7,
            "componentType" : 5123,
            "count" : 798,
            "type" : "SCALAR"
        },
        {
            "bufferView" : 8,
            "componentType" : 5126,
            "count" : 408,
            "max" : [
                2.211090087890625,
                2.977632999420166,
                0.02339700050652027
            ],
            "min" : [
                -1.9659470319747925,
                -2.977632999420166,
                -4.515521049499512
            ],
            "type" : "VEC3"
        },
        {
            "bufferView" : 9,
            "componentType" : 5126,
            "count" : 408,
            "type" : "VEC3"
        },
        {
            "bufferView" : 10,
            "componentType" : 5126,
            "count" : 408,
            "type" : "VEC2"
        },
        {
            "bufferView" : 11,
            "componentType" : 5123,
            "count" : 702,
            "type" : "SCALAR"
        },
        {
            "bufferView" : 12,
            "componentType" : 5126,
            "count" : 128,
            "max" : [
                2.211090087890625,
                2.397707939147949,
                -2.378484010696411
            ],
            "min" : [
                1.861515998840332,
                -2.610685110092163,
                -3.3335459232330322
            ],
            "type" : "VEC3"
        },
        {
            "bufferView" : 13,
            "componentType" : 5126,
            "count" : 128,
            "type" : "VEC3"
        },
        {
            "bufferView" : 14,
            "componentType" : 5126,
            "count" : 128,
            "type" : "VEC2"
        },
        {
            "bufferView" : 15,
            "componentType" : 5123,
            "count" : 180,
            "type" : "SCALAR"
        }
    ],
    "bufferViews" : [
        {
            "buffer" : 0,
            "byteLength" : 576,
            "byteOffset" : 0
        },
        {
            "buffer" : 0,
            "byteLength" : 576,
            "byteOffset" : 576
        },
        {
            "buffer" : 0,
            "byteLength" : 384,
            "byteOffset" : 1152
        },
        {
            "buffer" : 0,
            "byteLength" : 420,
            "byteOffset" : 1536
        },
        {
            "buffer" : 0,
            "byteLength" : 6576,
            "byteOffset" : 1956
        },
        {
            "buffer" : 0,
            "byteLength" : 6576,
            "byteOffset" : 8532
        },
        {
            "buffer" : 0,
            "byteLength" : 4384,
            "byteOffset" : 15108
        },
        {
            "buffer" : 0,
            "byteLength" : 1596,
            "byteOffset" : 19492
        },
        {
            "buffer" : 0,
            "byteLength" : 4896,
            "byteOffset" : 21088
        },
        {
            "buffer" : 0,
            "byteLength" : 4896,
            "byteOffset" : 25984
        },
        {
            "buffer" : 0,
            "byteLength" : 3264,
            "byteOffset" : 30880
        },
        {
            "buffer" : 0,
            "byteLength" : 1404,
            "byteOffset" : 34144
        },
        {
            "buffer" : 0,
            "byteLength" : 1536,
            "byteOffset" : 35548
        },
        {
            "buffer" : 0,
            "byteLength" : 1536,
            "byteOffset" : 37084
        },
        {
            "buffer" : 0,
            "byteLength" : 1024,
            "byteOffset" : 38620
        },
        {
            "buffer" : 0,
            "byteLength" : 360,
            "byteOffset" : 39644
        }
    ],
    "buffers" : [
        {
            "byteLength" : 40004,
            "uri" : "tresor.bin"
        }
    ]
}
