{"accessors":[{"bufferView":0,"componentType":5126,"count":638,"min":[-0.35519999265670779,-0.011900000274181366,-0.4101499915122986],"max":[0.35519999265670779,3.541409969329834,0.20508000254631043],"type":"VEC3","name":"sitePlan3_vertices#0_POSITION"},{"bufferView":0,"byteOffset":12,"componentType":5120,"count":638,"type":"VEC4","name":"sitePlan3_vertices#0_TANGENT"},{"bufferView":0,"byteOffset":16,"componentType":5120,"count":638,"type":"VEC4","name":"sitePlan3_vertices#0_NORMAL"},{"bufferView":0,"byteOffset":20,"componentType":5122,"count":638,"type":"VEC2","name":"sitePlan3_vertices#0_TEXCOORD_0"},{"bufferView":0,"byteOffset":24,"componentType":5122,"count":638,"type":"VEC2","name":"sitePlan3_vertices#0_TEXCOORD_1"},{"bufferView":0,"byteOffset":28,"componentType":5123,"count":638,"type":"VEC4","name":"sitePlan3_vertices#0_COLOR_0"},{"bufferView":1,"componentType":5123,"count":3120,"type":"SCALAR","name":"sitePlan3_indices#3"}],"asset":{"generator":"Extended Khronos glTF Blender I/O v1.0.0","version":"2.0","extensions":{"ASOBO_asset_optimized":{"BoundingBoxMax":[0.35519999265670779,3.541409969329834,0.20508000254631043],"BoundingBoxMin":[-0.35519999265670779,-0.011900000274181366,-0.4101499915122986],"MajorVersion":4,"MinorVersion":3,"UseCheckerboardMaterialForMissingTextures":true},"ASOBO_normal_map_convention":{"tangent_space_convention":"DirectX"}}},"bufferViews":[{"buffer":0,"byteLength":22968,"byteStride":36,"target":34962,"name":"BufferViewVertexND"},{"buffer":0,"byteLength":6240,"byteOffset":22968,"target":34963,"name":"BufferViewIndex"}],"extensionsRequired":["MSFT_texture_dds"],"materials":[{"name":"Alumin.001","pbrMetallicRoughness":{"metallicFactor":0.0,"roughnessFactor":0.5,"baseColorTexture":{"index":0}},"extensions":{"ASOBO_material_day_night_switch":{}}},{"name":"Concrete.001","pbrMetallicRoughness":{"metallicFactor":0.0,"roughnessFactor":0.5,"baseColorTexture":{"index":1}},"extensions":{"ASOBO_material_day_night_switch":{}}},{"name":"VertSigns","pbrMetallicRoughness":{"metallicFactor":0.0,"roughnessFactor":0.5,"baseColorTexture":{"index":2}},"extensions":{"ASOBO_material_day_night_switch":{}}},{"name":"Top.001","pbrMetallicRoughness":{"baseColorFactor":[0.0,0.0,0.0,1.0],"metallicFactor":0.0,"roughnessFactor":0.5},"extensions":{"ASOBO_material_day_night_switch":{},"ASOBO_material_shadow_options":{"noCastShadow":true}}}],"meshes":[{"primitives":[{"attributes":{"COLOR_0":5,"NORMAL":2,"POSITION":0,"TANGENT":1,"TEXCOORD_0":3,"TEXCOORD_1":4},"indices":6,"material":0,"mode":4,"extras":{"ASOBO_primitive":{"PrimitiveCount":1026,"VertexType":"VTX","VertexVersion":2}}},{"attributes":{"COLOR_0":5,"NORMAL":2,"POSITION":0,"TANGENT":1,"TEXCOORD_0":3,"TEXCOORD_1":4},"indices":6,"material":1,"mode":4,"extras":{"ASOBO_primitive":{"PrimitiveCount":7,"StartIndex":3078,"VertexType":"VTX","VertexVersion":2}}},{"attributes":{"COLOR_0":5,"NORMAL":2,"POSITION":0,"TANGENT":1,"TEXCOORD_0":3,"TEXCOORD_1":4},"indices":6,"material":2,"mode":4,"extras":{"ASOBO_primitive":{"PrimitiveCount":6,"StartIndex":3099,"VertexType":"VTX","VertexVersion":2}}},{"attributes":{"COLOR_0":5,"NORMAL":2,"POSITION":0,"TANGENT":1,"TEXCOORD_0":3,"TEXCOORD_1":4},"indices":6,"material":3,"mode":4,"extras":{"ASOBO_primitive":{"PrimitiveCount":1,"StartIndex":3117,"VertexType":"VTX","VertexVersion":2}}}],"name":"sitePlan3"}],"nodes":[{"rotation":[-0.0036087457556277515,0.0,0.0,0.9999935030937196],"mesh":0,"name":"sitePlan3"}],"scene":0,"scenes":[{"nodes":[0],"name":"Scene"}],"textures":[{"extensions":{"MSFT_texture_dds":{"source":0}}},{"extensions":{"MSFT_texture_dds":{"source":1}}},{"extensions":{"MSFT_texture_dds":{"source":2}}}],"extensionsUsed":["ASOBO_normal_map_convention","ASOBO_material_day_night_switch","ASOBO_material_shadow_options","MSFT_texture_dds","ASOBO_asset_optimized"],"buffers":[{"byteLength":29208,"uri":"panneau.bin"}],"images":[{"uri":"METALPUBLICITE_PNG.PNG.DDS","name":"metalpublicite.PNG","extras":"ASOBO_image_converted_meta"},{"uri":"CIMENT_PNG.PNG.DDS","name":"ciment.PNG","extras":"ASOBO_image_converted_meta"},{"uri":"PUBLICITE.PNG.DDS","name":"publicite","extras":"ASOBO_image_converted_meta"}]}
