{"accessors":[{"bufferView":0,"componentType":5126,"count":650,"min":[-1.4214999675750733,-0.009999999776482582,-0.6910000443458557],"max":[1.3924999237060547,0.009999999776482582,0.009000000543892384],"type":"VEC3","name":"Text.003_vertices#0_POSITION"},{"bufferView":0,"byteOffset":12,"componentType":5120,"count":650,"type":"VEC4","name":"Text.003_vertices#0_TANGENT"},{"bufferView":0,"byteOffset":16,"componentType":5120,"count":650,"type":"VEC4","name":"Text.003_vertices#0_NORMAL"},{"bufferView":0,"byteOffset":20,"componentType":5122,"count":650,"type":"VEC2","name":"Text.003_vertices#0_TEXCOORD_0"},{"bufferView":0,"byteOffset":24,"componentType":5122,"count":650,"type":"VEC2","name":"Text.003_vertices#0_TEXCOORD_1"},{"bufferView":0,"byteOffset":28,"componentType":5123,"count":650,"type":"VEC4","name":"Text.003_vertices#0_COLOR_0"},{"bufferView":1,"componentType":5123,"count":1512,"type":"SCALAR","name":"Text.003_indices#0"}],"asset":{"generator":"Extended Khronos glTF Blender I/O v1.0.0","version":"2.0","extensions":{"ASOBO_asset_optimized":{"BoundingBoxMax":[1.3924999237060547,0.009999999776482582,0.009000000543892384],"BoundingBoxMin":[-1.4214999675750733,-0.009999999776482582,-0.6910000443458557],"MajorVersion":4,"MinorVersion":3,"UseCheckerboardMaterialForMissingTextures":true},"ASOBO_normal_map_convention":{"tangent_space_convention":"DirectX"}}},"bufferViews":[{"buffer":0,"byteLength":23400,"byteStride":36,"target":34962,"name":"BufferViewVertexND"},{"buffer":0,"byteLength":3024,"byteOffset":23400,"target":34963,"name":"BufferViewIndex"}],"materials":[{"name":"Material.005","pbrMetallicRoughness":{"baseColorFactor":[0.0,0.0,0.0,1.0],"metallicFactor":0.0,"roughnessFactor":0.5}}],"meshes":[{"primitives":[{"attributes":{"COLOR_0":5,"NORMAL":2,"POSITION":0,"TANGENT":1,"TEXCOORD_0":3,"TEXCOORD_1":4},"indices":6,"material":0,"mode":4,"extras":{"ASOBO_primitive":{"PrimitiveCount":504,"VertexType":"VTX","VertexVersion":2}}}],"name":"Text.003"}],"nodes":[{"translation":[6.00187349319458,-0.23142623901367188,-0.08150291442871094],"mesh":0,"name":"Text"}],"scene":0,"scenes":[{"nodes":[0],"name":"Scene","extras":{"glTF2ExportSettings":{"export_extras":1,"export_generate_guid":1,"export_lods":0,"export_texture_dir":"../texture","export_xml":1,"export_xml_file":"vince","use_selection":1}}}],"extensionsUsed":["ASOBO_normal_map_convention","ASOBO_asset_optimized"],"buffers":[{"byteLength":26424,"uri":"vince.bin"}]}
