{"accessors":[{"bufferView":0,"componentType":5126,"count":48,"min":[-1.9039360284805298,-2.8432838916778566,-3.6375110149383547],"max":[1.9051719903945923,2.837459087371826,-2.898766040802002],"type":"VEC3","name":"Mesh_Plane_vertices#0_POSITION"},{"bufferView":0,"byteOffset":12,"componentType":5120,"count":48,"type":"VEC4","name":"Mesh_Plane_vertices#0_TANGENT"},{"bufferView":0,"byteOffset":16,"componentType":5120,"count":48,"type":"VEC4","name":"Mesh_Plane_vertices#0_NORMAL"},{"bufferView":0,"byteOffset":20,"componentType":5122,"count":48,"type":"VEC2","name":"Mesh_Plane_vertices#0_TEXCOORD_0"},{"bufferView":0,"byteOffset":24,"componentType":5122,"count":48,"type":"VEC2","name":"Mesh_Plane_vertices#0_TEXCOORD_1"},{"bufferView":0,"byteOffset":28,"componentType":5123,"count":48,"type":"VEC4","name":"Mesh_Plane_vertices#0_COLOR_0"},{"bufferView":1,"componentType":5123,"count":210,"type":"SCALAR","name":"Mesh_Plane_indices#0"},{"bufferView":0,"byteOffset":1728,"componentType":5126,"count":554,"min":[-2.4708259105682375,-2.977632999420166,-4.545982837677002],"max":[2.054702043533325,2.977632999420166,-2.5890920162200929],"type":"VEC3","name":"Mesh.001_Cube.006_vertices#0_POSITION"},{"bufferView":0,"byteOffset":1740,"componentType":5120,"count":554,"type":"VEC4","name":"Mesh.001_Cube.006_vertices#0_TANGENT"},{"bufferView":0,"byteOffset":1744,"componentType":5120,"count":554,"type":"VEC4","name":"Mesh.001_Cube.006_vertices#0_NORMAL"},{"bufferView":0,"byteOffset":1748,"componentType":5122,"count":554,"type":"VEC2","name":"Mesh.001_Cube.006_vertices#0_TEXCOORD_0"},{"bufferView":0,"byteOffset":1752,"componentType":5122,"count":554,"type":"VEC2","name":"Mesh.001_Cube.006_vertices#0_TEXCOORD_1"},{"bufferView":0,"byteOffset":1756,"componentType":5123,"count":554,"type":"VEC4","name":"Mesh.001_Cube.006_vertices#0_COLOR_0"},{"bufferView":1,"byteOffset":420,"componentType":5123,"count":798,"type":"SCALAR","name":"Mesh.001_Cube.006_indices#0"},{"bufferView":0,"byteOffset":21672,"componentType":5126,"count":464,"min":[-1.9659470319747925,-2.977632999420166,-4.515521049499512],"max":[2.211090087890625,2.977632999420166,0.02339700050652027],"type":"VEC3","name":"Mesh.002_Cube.008_vertices#0_POSITION"},{"bufferView":0,"byteOffset":21684,"componentType":5120,"count":464,"type":"VEC4","name":"Mesh.002_Cube.008_vertices#0_TANGENT"},{"bufferView":0,"byteOffset":21688,"componentType":5120,"count":464,"type":"VEC4","name":"Mesh.002_Cube.008_vertices#0_NORMAL"},{"bufferView":0,"byteOffset":21692,"componentType":5122,"count":464,"type":"VEC2","name":"Mesh.002_Cube.008_vertices#0_TEXCOORD_0"},{"bufferView":0,"byteOffset":21696,"componentType":5122,"count":464,"type":"VEC2","name":"Mesh.002_Cube.008_vertices#0_TEXCOORD_1"},{"bufferView":0,"byteOffset":21700,"componentType":5123,"count":464,"type":"VEC4","name":"Mesh.002_Cube.008_vertices#0_COLOR_0"},{"bufferView":1,"byteOffset":2016,"componentType":5123,"count":702,"type":"SCALAR","name":"Mesh.002_Cube.008_indices#0"},{"bufferView":0,"byteOffset":38376,"componentType":5126,"count":132,"min":[1.861515998840332,-2.610685110092163,-3.3335459232330324],"max":[2.211090087890625,2.397707939147949,-2.378484010696411],"type":"VEC3","name":"Mesh.003_Cube.007_vertices#0_POSITION"},{"bufferView":0,"byteOffset":38388,"componentType":5120,"count":132,"type":"VEC4","name":"Mesh.003_Cube.007_vertices#0_TANGENT"},{"bufferView":0,"byteOffset":38392,"componentType":5120,"count":132,"type":"VEC4","name":"Mesh.003_Cube.007_vertices#0_NORMAL"},{"bufferView":0,"byteOffset":38396,"componentType":5122,"count":132,"type":"VEC2","name":"Mesh.003_Cube.007_vertices#0_TEXCOORD_0"},{"bufferView":0,"byteOffset":38400,"componentType":5122,"count":132,"type":"VEC2","name":"Mesh.003_Cube.007_vertices#0_TEXCOORD_1"},{"bufferView":0,"byteOffset":38404,"componentType":5123,"count":132,"type":"VEC4","name":"Mesh.003_Cube.007_vertices#0_COLOR_0"},{"bufferView":1,"byteOffset":3420,"componentType":5123,"count":180,"type":"SCALAR","name":"Mesh.003_Cube.007_indices#0"}],"asset":{"generator":"Extended Khronos glTF Blender I/O v1.0.0","version":"2.0","extensions":{"ASOBO_asset_optimized":{"BoundingBoxMax":[2.211090087890625,2.977632999420166,0.02339700050652027],"BoundingBoxMin":[-2.4708259105682375,-2.977632999420166,-4.545982837677002],"MajorVersion":4,"MinorVersion":3,"UseCheckerboardMaterialForMissingTextures":true},"ASOBO_normal_map_convention":{"tangent_space_convention":"DirectX"}}},"bufferViews":[{"buffer":0,"byteLength":43128,"byteStride":36,"target":34962,"name":"BufferViewVertexND"},{"buffer":0,"byteLength":3780,"byteOffset":43128,"target":34963,"name":"BufferViewIndex"}],"extensionsRequired":["MSFT_texture_dds"],"materials":[{"name":"GoldText","pbrMetallicRoughness":{"metallicFactor":0.0,"roughnessFactor":0.5,"baseColorTexture":{"index":0}}},{"name":"ChestText","doubleSided":true,"pbrMetallicRoughness":{"metallicFactor":0.0,"roughnessFactor":0.5,"baseColorTexture":{"index":1}}}],"meshes":[{"primitives":[{"attributes":{"COLOR_0":5,"NORMAL":2,"POSITION":0,"TANGENT":1,"TEXCOORD_0":3,"TEXCOORD_1":4},"indices":6,"material":0,"mode":4,"extras":{"ASOBO_primitive":{"PrimitiveCount":70,"VertexType":"VTX","VertexVersion":2}}}],"name":"Mesh_Plane"},{"primitives":[{"attributes":{"COLOR_0":12,"NORMAL":9,"POSITION":7,"TANGENT":8,"TEXCOORD_0":10,"TEXCOORD_1":11},"indices":13,"material":1,"mode":4,"extras":{"ASOBO_primitive":{"PrimitiveCount":266,"VertexType":"VTX","VertexVersion":2}}}],"name":"Mesh.001_Cube.006"},{"primitives":[{"attributes":{"COLOR_0":19,"NORMAL":16,"POSITION":14,"TANGENT":15,"TEXCOORD_0":17,"TEXCOORD_1":18},"indices":20,"material":1,"mode":4,"extras":{"ASOBO_primitive":{"PrimitiveCount":234,"VertexType":"VTX","VertexVersion":2}}}],"name":"Mesh.002_Cube.008"},{"primitives":[{"attributes":{"COLOR_0":26,"NORMAL":23,"POSITION":21,"TANGENT":22,"TEXCOORD_0":24,"TEXCOORD_1":25},"indices":27,"material":1,"mode":4,"extras":{"ASOBO_primitive":{"PrimitiveCount":60,"VertexType":"VTX","VertexVersion":2}}}],"name":"Mesh.003_Cube.007"}],"nodes":[{"rotation":[0.7071068286895752,0.0,0.0,0.7071067094802856],"mesh":0,"name":"Mesh_Plane"},{"translation":[-1.8118096590042113,2.272226572036743,0.0],"rotation":[0.6586101651191711,-0.2573571801185608,-0.257357120513916,0.6586100459098816],"mesh":1,"name":"Mesh.001_Cube.006"},{"rotation":[0.7071068286895752,0.0,0.0,0.7071067094802856],"mesh":2,"name":"Mesh.002_Cube.008"},{"rotation":[0.7071068286895752,0.0,0.0,0.7071067094802856],"mesh":3,"name":"Mesh.003_Cube.007"}],"scene":0,"scenes":[{"nodes":[0,1,2,3],"name":"Scene"}],"textures":[{"extensions":{"MSFT_texture_dds":{"source":0}}},{"extensions":{"MSFT_texture_dds":{"source":1}}}],"extensionsUsed":["ASOBO_normal_map_convention","MSFT_texture_dds","ASOBO_asset_optimized"],"buffers":[{"byteLength":46908,"uri":"tresor.bin"}],"images":[{"uri":"GOLD.PNG.DDS","name":"gold","extras":"ASOBO_image_converted_meta"},{"uri":"CHEST_RARE.PNG.DDS","name":"chest_rare","extras":"ASOBO_image_converted_meta"}]}
