{"accessors":[{"bufferView":0,"componentType":5126,"count":8296,"min":[-4.994369983673096,-0.07357800006866455,-3.890115976333618],"max":[4.994369983673096,0.0,3.8508310317993166],"type":"VEC3","name":"Emblem_vertices#0_POSITION"},{"bufferView":0,"byteOffset":12,"componentType":5120,"count":8296,"type":"VEC4","name":"Emblem_vertices#0_TANGENT"},{"bufferView":0,"byteOffset":16,"componentType":5120,"count":8296,"type":"VEC4","name":"Emblem_vertices#0_NORMAL"},{"bufferView":0,"byteOffset":20,"componentType":5122,"count":8296,"type":"VEC2","name":"Emblem_vertices#0_TEXCOORD_0"},{"bufferView":0,"byteOffset":24,"componentType":5122,"count":8296,"type":"VEC2","name":"Emblem_vertices#0_TEXCOORD_1"},{"bufferView":0,"byteOffset":28,"componentType":5123,"count":8296,"type":"VEC4","name":"Emblem_vertices#0_COLOR_0"},{"bufferView":1,"componentType":5123,"count":33690,"type":"SCALAR","name":"Emblem_indices#0"}],"asset":{"generator":"Extended Khronos glTF Blender I/O v1.0.0","version":"2.0","extensions":{"ASOBO_asset_optimized":{"BoundingBoxMax":[4.994369983673096,0.0,3.8508310317993166],"BoundingBoxMin":[-4.994369983673096,-0.07357800006866455,-3.890115976333618],"MajorVersion":4,"MinorVersion":3,"UseCheckerboardMaterialForMissingTextures":true},"ASOBO_normal_map_convention":{"tangent_space_convention":"DirectX"}}},"bufferViews":[{"buffer":0,"byteLength":298656,"byteStride":36,"target":34962,"name":"BufferViewVertexND"},{"buffer":0,"byteLength":67380,"byteOffset":298656,"target":34963,"name":"BufferViewIndex"}],"extensionsRequired":["MSFT_texture_dds"],"materials":[{"name":"Emblem_M","normalTexture":{"index":0},"occlusionTexture":{"index":1},"emissiveFactor":[0.06428571790456772,0.06428571790456772,0.06428571790456772],"pbrMetallicRoughness":{"baseColorTexture":{"index":2},"metallicRoughnessTexture":{"index":1}}}],"meshes":[{"primitives":[{"attributes":{"COLOR_0":5,"NORMAL":2,"POSITION":0,"TANGENT":1,"TEXCOORD_0":3,"TEXCOORD_1":4},"indices":6,"material":0,"mode":4,"extras":{"ASOBO_primitive":{"PrimitiveCount":11230,"VertexType":"VTX","VertexVersion":2}}}],"name":"Emblem"}],"nodes":[{"rotation":[0.7071068286895752,0.0,0.0,0.7071067094802856],"mesh":0,"name":"Emblem"}],"scene":0,"scenes":[{"nodes":[0],"name":"Scene"}],"textures":[{"extensions":{"MSFT_texture_dds":{"source":0}}},{"extensions":{"MSFT_texture_dds":{"source":1}}},{"extensions":{"MSFT_texture_dds":{"source":2}}}],"extensionsUsed":["ASOBO_normal_map_convention","MSFT_texture_dds","ASOBO_asset_optimized"],"buffers":[{"byteLength":366036,"uri":"elite.bin"}],"images":[{"uri":"METAL025_2K_NORMALDX.PNG.DDS","name":"Metal025_2K_NormalDX","extras":"ASOBO_image_converted_meta"},{"uri":"METAL025_2K_ROUGHNESS.PNG.DDS","name":"Metal025_2K_Roughness","extras":"ASOBO_image_converted_meta"},{"uri":"METAL034_2K_COLOR.PNG.DDS","name":"Metal034_2K_Color","extras":"ASOBO_image_converted_meta"}]}
