{
    "asset" : {
        "extensions" : {
            "ASOBO_normal_map_convention" : {
                "tangent_space_convention" : "DirectX"
            }
        },
        "generator" : "Extended Khronos glTF Blender I/O v1.0.0",
        "version" : "2.0"
    },
    "extensionsUsed" : [
        "ASOBO_normal_map_convention",
        "ASOBO_material_day_night_switch"
    ],
    "scene" : 0,
    "scenes" : [
        {
            "name" : "Scene",
            "nodes" : [
                0
            ]
        }
    ],
    "nodes" : [
        {
            "mesh" : 0,
            "name" : "Text",
            "translation" : [
                -1,
                0,
                0
            ]
        }
    ],
    "materials" : [
        {
            "emissiveFactor" : [
                0,
                0,
                0
            ],
            "extensions" : {
                "ASOBO_material_day_night_switch" : {
                    "enabled" : true
                }
            },
            "name" : "Material.001",
            "normalTexture" : {
                "index" : 0,
                "texCoord" : 0
            },
            "occlusionTexture" : {
                "index" : 1,
                "texCoord" : 0
            },
            "pbrMetallicRoughness" : {
                "baseColorTexture" : {
                    "index" : 2,
                    "texCoord" : 0
                },
                "metallicRoughnessTexture" : {
                    "index" : 1,
                    "texCoord" : 0
                }
            }
        }
    ],
    "meshes" : [
        {
            "name" : "Text",
            "primitives" : [
                {
                    "attributes" : {
                        "POSITION" : 0,
                        "NORMAL" : 1,
                        "TEXCOORD_0" : 2
                    },
                    "indices" : 3,
                    "material" : 0
                }
            ]
        }
    ],
    "textures" : [
        {
            "source" : 0
        },
        {
            "source" : 1
        },
        {
            "source" : 2
        }
    ],
    "images" : [
        {
            "mimeType" : "image/png",
            "name" : "Metal034_2K_NormalDX",
            "uri" : "Metal034_2K_NormalDX.png"
        },
        {
            "mimeType" : "image/png",
            "name" : "Metal034_2K_Roughness",
            "uri" : "Metal034_2K_Roughness.png"
        },
        {
            "mimeType" : "image/png",
            "name" : "Metal034_2K_Color",
            "uri" : "Metal034_2K_Color.png"
        }
    ],
    "accessors" : [
        {
            "bufferView" : 0,
            "componentType" : 5126,
            "count" : 2163,
            "max" : [
                3.827000617980957,
                0.029999999329447746,
                0.009000000543892384
            ],
            "min" : [
                -3.7890002727508545,
                -0.029999999329447746,
                -0.6910000443458557
            ],
            "type" : "VEC3"
        },
        {
            "bufferView" : 1,
            "componentType" : 5126,
            "count" : 2163,
            "type" : "VEC3"
        },
        {
            "bufferView" : 2,
            "componentType" : 5126,
            "count" : 2163,
            "type" : "VEC2"
        },
        {
            "bufferView" : 3,
            "componentType" : 5123,
            "count" : 5424,
            "type" : "SCALAR"
        }
    ],
    "bufferViews" : [
        {
            "buffer" : 0,
            "byteLength" : 25956,
            "byteOffset" : 0
        },
        {
            "buffer" : 0,
            "byteLength" : 25956,
            "byteOffset" : 25956
        },
        {
            "buffer" : 0,
            "byteLength" : 17304,
            "byteOffset" : 51912
        },
        {
            "buffer" : 0,
            "byteLength" : 10848,
            "byteOffset" : 69216
        }
    ],
    "buffers" : [
        {
            "byteLength" : 80064,
            "uri" : "cdv.bin"
        }
    ]
}
