{"accessors":[{"bufferView":0,"componentType":5126,"count":3254,"min":[-4.541500091552734,-0.05000000074505806,-0.6910000443458557],"max":[4.582499980926514,0.05000000074505806,0.009000000543892384],"type":"VEC3","name":"Text_vertices#0_POSITION"},{"bufferView":0,"byteOffset":12,"componentType":5120,"count":3254,"type":"VEC4","name":"Text_vertices#0_TANGENT"},{"bufferView":0,"byteOffset":16,"componentType":5120,"count":3254,"type":"VEC4","name":"Text_vertices#0_NORMAL"},{"bufferView":0,"byteOffset":20,"componentType":5122,"count":3254,"type":"VEC2","name":"Text_vertices#0_TEXCOORD_0"},{"bufferView":0,"byteOffset":24,"componentType":5122,"count":3254,"type":"VEC2","name":"Text_vertices#0_TEXCOORD_1"},{"bufferView":0,"byteOffset":28,"componentType":5123,"count":3254,"type":"VEC4","name":"Text_vertices#0_COLOR_0"},{"bufferView":1,"componentType":5123,"count":7716,"type":"SCALAR","name":"Text_indices#0"}],"asset":{"generator":"Extended Khronos glTF Blender I/O v1.0.0","version":"2.0","extensions":{"ASOBO_asset_optimized":{"BoundingBoxMax":[4.582499980926514,0.05000000074505806,0.009000000543892384],"BoundingBoxMin":[-4.541500091552734,-0.05000000074505806,-0.6910000443458557],"MajorVersion":4,"MinorVersion":3,"UseCheckerboardMaterialForMissingTextures":true},"ASOBO_normal_map_convention":{"tangent_space_convention":"DirectX"}}},"bufferViews":[{"buffer":0,"byteLength":117144,"byteStride":36,"target":34962,"name":"BufferViewVertexND"},{"buffer":0,"byteLength":15432,"byteOffset":117144,"target":34963,"name":"BufferViewIndex"}],"extensionsRequired":["MSFT_texture_dds"],"materials":[{"name":"Material.001","normalTexture":{"index":1},"occlusionTexture":{"index":2},"emissiveTexture":{"index":0},"pbrMetallicRoughness":{"baseColorFactor":[0.800000011920929,0.800000011920929,0.800000011920929,1.0],"metallicRoughnessTexture":{"index":2}},"extensions":{"ASOBO_material_day_night_switch":{}}}],"meshes":[{"primitives":[{"attributes":{"COLOR_0":5,"NORMAL":2,"POSITION":0,"TANGENT":1,"TEXCOORD_0":3,"TEXCOORD_1":4},"indices":6,"material":0,"mode":4,"extras":{"ASOBO_primitive":{"PrimitiveCount":2572,"VertexType":"VTX","VertexVersion":2}}}],"name":"Text"}],"nodes":[{"translation":[7.358891487121582,4.958309173583984,6.925790786743164],"rotation":[0.483536034822464,0.33687159419059756,-0.20870360732078553,0.7804827094078064],"name":"Camera"},{"mesh":0,"name":"Text"}],"scene":0,"scenes":[{"nodes":[0,1],"name":"Scene"}],"textures":[{"extensions":{"MSFT_texture_dds":{"source":0}}},{"extensions":{"MSFT_texture_dds":{"source":1}}},{"extensions":{"MSFT_texture_dds":{"source":2}}}],"extensionsUsed":["ASOBO_normal_map_convention","ASOBO_material_day_night_switch","MSFT_texture_dds","ASOBO_asset_optimized"],"buffers":[{"byteLength":132576,"uri":"bonneannee.bin"}],"images":[{"uri":"METAL034_2K_METALNESS.PNG.DDS","name":"Metal034_2K_Metalness","extras":"ASOBO_image_converted_meta"},{"uri":"METAL034_2K_NORMALDX.PNG.DDS","name":"Metal034_2K_NormalDX","extras":"ASOBO_image_converted_meta"},{"uri":"METAL025_2K_COLOR.PNG.DDS","name":"Metal025_2K_Color","extras":"ASOBO_image_converted_meta"}]}
